<svg xmlns="http://www.w3.org/2000/svg" version="1.1" xmlns:xlink="http://www.w3.org/1999/xlink" xmlns:svgjs="http://svgjs.dev/svgjs" viewBox="0 0 800 800"><defs><linearGradient x1="50%" y1="0%" x2="50%" y2="100%" id="ffflurry-grad" gradientTransform="rotate(270)"><stop stop-color="hsl(0, 0%, 0%)" stop-opacity="1" offset="0%"></stop><stop stop-color="hsl(37, 91%, 25%)" stop-opacity="1" offset="45%"></stop><stop stop-color="hsl(0, 0%, 27%)" stop-opacity="1" offset="100%"></stop></linearGradient></defs><rect width="100%" height="100%" fill="hsl(0, 0%, 0%)"></rect><g fill="url(#ffflurry-grad)"><rect width="695" height="3" x="111.5" y="214.5" rx="1.5" transform="rotate(45, 459, 216)" opacity="0.50"></rect><rect width="295" height="3" x="135.5" y="717.5" rx="1.5" transform="rotate(45, 283, 719)" opacity="0.19"></rect><rect width="368" height="3" x="-127" y="741.5" rx="1.5" transform="rotate(45, 57, 743)" opacity="0.37"></rect><rect width="651" height="3" x="9.5" y="617.5" rx="1.5" transform="rotate(45, 335, 619)" opacity="0.14"></rect><rect width="370" height="3" x="560" y="309.5" rx="1.5" transform="rotate(45, 745, 311)" opacity="0.25"></rect><rect width="197" height="3" x="198.5" y="431.5" rx="1.5" transform="rotate(45, 297, 433)" opacity="0.45"></rect><rect width="170" height="3" x="470" y="279.5" rx="1.5" transform="rotate(45, 555, 281)" opacity="0.71"></rect><rect width="409" height="3" x="549.5" y="445.5" rx="1.5" transform="rotate(45, 754, 447)" opacity="0.29"></rect><rect width="565" height="3" x="-26.5" y="331.5" rx="1.5" transform="rotate(45, 256, 333)" opacity="0.15"></rect><rect width="165" height="3" x="180.5" y="232.5" rx="1.5" transform="rotate(45, 263, 234)" opacity="0.40"></rect><rect width="116" height="3" x="626" y="37.5" rx="1.5" transform="rotate(45, 684, 39)" opacity="0.43"></rect><rect width="125" height="3" x="397.5" y="739.5" rx="1.5" transform="rotate(45, 460, 741)" opacity="0.43"></rect><rect width="481" height="3" x="-57.5" y="196.5" rx="1.5" transform="rotate(45, 183, 198)" opacity="0.28"></rect><rect width="227" height="3" x="56.5" y="374.5" rx="1.5" transform="rotate(45, 170, 376)" opacity="0.85"></rect><rect width="95" height="3" x="137.5" y="290.5" rx="1.5" transform="rotate(45, 185, 292)" opacity="0.81"></rect><rect width="464" height="3" x="211" y="396.5" rx="1.5" transform="rotate(45, 443, 398)" opacity="0.68"></rect><rect width="212" height="3" x="444" y="182.5" rx="1.5" transform="rotate(45, 550, 184)" opacity="0.40"></rect><rect width="280" height="3" x="459" y="488.5" rx="1.5" transform="rotate(45, 599, 490)" opacity="0.57"></rect><rect width="279" height="3" x="399.5" y="477.5" rx="1.5" transform="rotate(45, 539, 479)" opacity="0.82"></rect><rect width="628" height="3" x="-76" y="134.5" rx="1.5" transform="rotate(45, 238, 136)" opacity="0.91"></rect><rect width="538" height="3" x="415" y="671.5" rx="1.5" transform="rotate(45, 684, 673)" opacity="0.40"></rect><rect width="456" height="3" x="-77" y="698.5" rx="1.5" transform="rotate(45, 151, 700)" opacity="0.68"></rect><rect width="156" height="3" x="227" y="51.5" rx="1.5" transform="rotate(45, 305, 53)" opacity="0.57"></rect><rect width="454" height="3" x="-36" y="47.5" rx="1.5" transform="rotate(45, 191, 49)" opacity="0.46"></rect><rect width="403" height="3" x="-167.5" y="151.5" rx="1.5" transform="rotate(45, 34, 153)" opacity="0.60"></rect><rect width="111" height="3" x="136.5" y="553.5" rx="1.5" transform="rotate(45, 192, 555)" opacity="0.86"></rect><rect width="64" height="3" x="319" y="368.5" rx="1.5" transform="rotate(45, 351, 370)" opacity="0.52"></rect><rect width="424" height="3" x="436" y="319.5" rx="1.5" transform="rotate(45, 648, 321)" opacity="0.11"></rect><rect width="92" height="3" x="547" y="671.5" rx="1.5" transform="rotate(45, 593, 673)" opacity="0.59"></rect><rect width="425" height="3" x="-30.5" y="631.5" rx="1.5" transform="rotate(45, 182, 633)" opacity="0.23"></rect><rect width="298" height="3" x="75" y="441.5" rx="1.5" transform="rotate(45, 224, 443)" opacity="0.72"></rect><rect width="516" height="3" x="-208" y="231.5" rx="1.5" transform="rotate(45, 50, 233)" opacity="0.56"></rect><rect width="202" height="3" x="-36" y="632.5" rx="1.5" transform="rotate(45, 65, 634)" opacity="0.46"></rect><rect width="292" height="3" x="-53" y="543.5" rx="1.5" transform="rotate(45, 93, 545)" opacity="0.73"></rect><rect width="226" height="3" x="155" y="652.5" rx="1.5" transform="rotate(45, 268, 654)" opacity="0.15"></rect><rect width="690" height="3" x="407" y="744.5" rx="1.5" transform="rotate(45, 752, 746)" opacity="0.58"></rect><rect width="269" height="3" x="-12.5" y="252.5" rx="1.5" transform="rotate(45, 122, 254)" opacity="0.11"></rect><rect width="182" height="3" x="-40" y="409.5" rx="1.5" transform="rotate(45, 51, 411)" opacity="0.36"></rect><rect width="95" height="3" x="-14.5" y="53.5" rx="1.5" transform="rotate(45, 33, 55)" opacity="0.11"></rect><rect width="709" height="3" x="218.5" y="386.5" rx="1.5" transform="rotate(45, 573, 388)" opacity="0.56"></rect><rect width="66" height="3" x="389" y="304.5" rx="1.5" transform="rotate(45, 422, 306)" opacity="0.22"></rect><rect width="206" height="3" x="269" y="453.5" rx="1.5" transform="rotate(45, 372, 455)" opacity="0.60"></rect><rect width="555" height="3" x="62.5" y="161.5" rx="1.5" transform="rotate(45, 340, 163)" opacity="0.51"></rect><rect width="187" height="3" x="-49.5" y="475.5" rx="1.5" transform="rotate(45, 44, 477)" opacity="0.76"></rect><rect width="234" height="3" x="280" y="697.5" rx="1.5" transform="rotate(45, 397, 699)" opacity="0.25"></rect><rect width="257" height="3" x="359.5" y="539.5" rx="1.5" transform="rotate(45, 488, 541)" opacity="0.10"></rect><rect width="357" height="3" x="258.5" y="479.5" rx="1.5" transform="rotate(45, 437, 481)" opacity="0.11"></rect><rect width="331" height="3" x="329.5" y="441.5" rx="1.5" transform="rotate(45, 495, 443)" opacity="0.47"></rect><rect width="104" height="3" x="439" y="332.5" rx="1.5" transform="rotate(45, 491, 334)" opacity="0.58"></rect><rect width="352" height="3" x="6" y="758.5" rx="1.5" transform="rotate(45, 182, 760)" opacity="0.94"></rect><rect width="337" height="3" x="-65.5" y="45.5" rx="1.5" transform="rotate(45, 103, 47)" opacity="0.68"></rect><rect width="113" height="3" x="364.5" y="116.5" rx="1.5" transform="rotate(45, 421, 118)" opacity="0.96"></rect><rect width="325" height="3" x="368.5" y="744.5" rx="1.5" transform="rotate(45, 531, 746)" opacity="0.17"></rect><rect width="141" height="3" x="370.5" y="631.5" rx="1.5" transform="rotate(45, 441, 633)" opacity="0.67"></rect><rect width="190" height="3" x="235" y="302.5" rx="1.5" transform="rotate(45, 330, 304)" opacity="0.96"></rect><rect width="127" height="3" x="461.5" y="40.5" rx="1.5" transform="rotate(45, 525, 42)" opacity="0.60"></rect><rect width="58" height="3" x="733" y="106.5" rx="1.5" transform="rotate(45, 762, 108)" opacity="0.47"></rect><rect width="118" height="3" x="572" y="762.5" rx="1.5" transform="rotate(45, 631, 764)" opacity="0.69"></rect><rect width="479" height="3" x="410.5" y="223.5" rx="1.5" transform="rotate(45, 650, 225)" opacity="0.73"></rect><rect width="102" height="3" x="377" y="35.5" rx="1.5" transform="rotate(45, 428, 37)" opacity="0.27"></rect><rect width="316" height="3" x="-16" y="470.5" rx="1.5" transform="rotate(45, 142, 472)" opacity="0.91"></rect><rect width="63" height="3" x="253.5" y="534.5" rx="1.5" transform="rotate(45, 285, 536)" opacity="0.81"></rect><rect width="165" height="3" x="-60.5" y="553.5" rx="1.5" transform="rotate(45, 22, 555)" opacity="0.08"></rect><rect width="374" height="3" x="484" y="490.5" rx="1.5" transform="rotate(45, 671, 492)" opacity="0.59"></rect><rect width="513" height="3" x="303.5" y="596.5" rx="1.5" transform="rotate(45, 560, 598)" opacity="0.22"></rect><rect width="251" height="3" x="-93.5" y="318.5" rx="1.5" transform="rotate(45, 32, 320)" opacity="0.43"></rect><rect width="584" height="3" x="-173" y="139.5" rx="1.5" transform="rotate(45, 119, 141)" opacity="0.86"></rect><rect width="183" height="3" x="300.5" y="548.5" rx="1.5" transform="rotate(45, 392, 550)" opacity="1.00"></rect><rect width="285" height="3" x="220.5" y="241.5" rx="1.5" transform="rotate(45, 363, 243)" opacity="0.56"></rect><rect width="315" height="3" x="364.5" y="111.5" rx="1.5" transform="rotate(45, 522, 113)" opacity="0.74"></rect><rect width="503" height="3" x="491.5" y="593.5" rx="1.5" transform="rotate(45, 743, 595)" opacity="0.90"></rect><rect width="35" height="3" x="574.5" y="24.5" rx="1.5" transform="rotate(45, 592, 26)" opacity="0.87"></rect><rect width="464" height="3" x="377" y="102.5" rx="1.5" transform="rotate(45, 609, 104)" opacity="0.62"></rect><rect width="415" height="3" x="-107.5" y="347.5" rx="1.5" transform="rotate(45, 100, 349)" opacity="0.84"></rect><rect width="391" height="3" x="492.5" y="158.5" rx="1.5" transform="rotate(45, 688, 160)" opacity="0.57"></rect><rect width="297" height="3" x="112.5" y="773.5" rx="1.5" transform="rotate(45, 261, 775)" opacity="0.87"></rect><rect width="249" height="3" x="232.5" y="757.5" rx="1.5" transform="rotate(45, 357, 759)" opacity="0.44"></rect></g></svg>