<svg xmlns="http://www.w3.org/2000/svg" version="1.1" xmlns:xlink="http://www.w3.org/1999/xlink" xmlns:svgjs="http://svgjs.dev/svgjs" viewBox="0 0 800 800"><defs><filter id="llleaves-blur-2" x="-100%" y="-100%" width="400%" height="400%"><feGaussianBlur in="SourceGraphic" stdDeviation="2"></feGaussianBlur></filter><filter id="llleaves-blur-3" x="-100%" y="-100%" width="400%" height="400%"><feGaussianBlur in="SourceGraphic" stdDeviation="4"></feGaussianBlur></filter><filter id="llleaves-blur-4" x="-100%" y="-100%" width="400%" height="400%"><feGaussianBlur in="SourceGraphic" stdDeviation="12"></feGaussianBlur></filter></defs><g fill="hsl(37, 91%, 25%)"><path d="M79 461H129C157 461 179 483 179 511H129C101 511 79 489 79 461Z " transform="matrix(0.004111117630119006,0.23552577128905833,-0.23552577128905833,0.004111117630119006,242.93519067219705,453.61917233547365)" filter="url(#llleaves-blur-3)" opacity="0.36"></path><path d="M-1 124H49C77 124 99 146 99 174H49C21 174 -1 152 -1 124Z " transform="matrix(0.08427691573521069,0.18073242903336023,-0.18073242903336023,0.08427691573521069,71.79956305494535,127.58685053281896)" filter="url(#llleaves-blur-4)" opacity="0.30"></path><path d="M284 655H334C362 655 384 677 384 705H334C306 705 284 683 284 655Z " transform="matrix(0.10150258385640058,0.1563002726171229,-0.1563002726171229,0.10150258385640058,406.38232237160577,558.7739519235286)" filter="url(#llleaves-blur-4)" opacity="0.28"></path><path d="M395 533H445C473 533 495 555 495 583H445C417 583 395 561 395 533Z " transform="matrix(0.04893146914370382,0.21194547808923275,-0.21194547808923275,0.04893146914370382,541.4910730048437,436.3805024681047)" filter="url(#llleaves-blur-3)" opacity="0.33"></path><path d="M415 286H465C493 286 515 308 515 336H465C437 336 415 314 415 286Z " transform="matrix(0.01613554979433072,0.2307491124772799,-0.2307491124772799,0.01613554979433072,529.2599433260702,198.68350671202802)" filter="url(#llleaves-blur-3)" opacity="0.35"></path><path d="M60 213H110C138 213 160 235 160 263H110C82 263 60 241 60 213Z " transform="matrix(0.02006816964995747,0.22938022871970176,-0.22938022871970176,0.02006816964995747,162.38499577379372,207.99195046414292)" filter="url(#llleaves-blur-3)" opacity="0.35"></path><path d="M381 628H431C459 628 481 650 481 678H431C403 678 381 656 381 628Z " transform="matrix(0.07367965666299771,0.19194206786316906,-0.19194206786316906,0.07367965666299771,524.5822382928974,522.1601529500366)" filter="url(#llleaves-blur-3)" opacity="0.31"></path><path d="M135 732H185C213 732 235 754 235 782H185C157 782 135 760 135 732Z " transform="matrix(1.4561586657071028e-17,0.237808757058923,-0.237808757058923,1.4561586657071028e-17,365.0212290936047,713.0053799440992)" filter="url(#llleaves-blur-3)" opacity="0.36"></path><path d="M337 362H387C415 362 437 384 437 412H387C359 412 337 390 337 362Z " transform="matrix(0.10028229614104081,0.1604852211660277,-0.1604852211660277,0.10028229614104081,410.2985319846699,286.0829708021645)" filter="url(#llleaves-blur-4)" opacity="0.29"></path><path d="M541 398H591C619 398 641 420 641 448H591C563 448 541 426 541 398Z " transform="matrix(-0.2971239829108702,0.15139223094823617,-0.15139223094823617,-0.2971239829108702,830.6391875914283,459.21063628089047)" filter="url(#llleaves-blur-2)" opacity="0.51"></path><path d="M374 728H424C452 728 474 750 474 778H424C396 778 374 756 374 728Z " transform="matrix(0.07367965666299771,0.19194206786316906,-0.19194206786316906,0.07367965666299771,537.2922026758553,616.1357817587791)" filter="url(#llleaves-blur-3)" opacity="0.31"></path><path d="M485 209H535C563 209 585 231 585 259H535C507 259 485 237 485 209Z " transform="matrix(-0.21621913036926188,0.2162191303692619,-0.2162191303692619,-0.21621913036926188,701.2725112539624,168.91804175885215)" filter="url(#llleaves-blur-2)" opacity="0.47"></path><path d="M706 464H756C784 464 806 486 806 514H756C728 514 706 492 706 464Z " transform="matrix(-0.2549016755094159,0.1920821899581085,-0.1920821899581085,-0.2549016755094159,1042.6338575746336,468.43278371577435)" filter="url(#llleaves-blur-2)" opacity="0.49"></path><path d="M648 246H698C726 246 748 268 748 296H698C670 296 648 274 648 246Z " transform="matrix(-0.28966756306066765,0.16056535211679385,-0.16056535211679385,-0.28966756306066765,943.701169439997,237.42529381191883)" filter="url(#llleaves-blur-2)" opacity="0.51"></path><path d="M441 18H491C519 18 541 40 541 68H491C463 68 441 46 441 18Z " transform="matrix(0.027561379836862954,0.22446942542440576,-0.22446942542440576,0.027561379836862954,487.11954779334974,-68.39962721636833)" filter="url(#llleaves-blur-3)" opacity="0.34"></path><path d="M242 412H292C320 412 342 434 342 462H292C264 462 242 440 242 412Z " transform="matrix(0.07623043427212887,0.18867694569716126,-0.18867694569716126,0.07623043427212887,352.19253846219783,348.5936320795086)" filter="url(#llleaves-blur-3)" opacity="0.31"></path><path d="M93 106H143C171 106 193 128 193 156H143C115 156 93 134 93 106Z " transform="matrix(-0.02143072942608176,0.2449543582264409,-0.2449543582264409,-0.02143072942608176,178.15361523559346,98.77895232843566)" filter="url(#llleaves-blur-3)" opacity="0.38"></path><path d="M248 316H298C326 316 348 338 348 366H298C270 366 248 344 248 316Z " transform="matrix(0.07623043427212887,0.18867694569716126,-0.18867694569716126,0.07623043427212887,339.6221690696376,258.77969209545)" filter="url(#llleaves-blur-3)" opacity="0.31"></path><path d="M585 500H635C663 500 685 522 685 550H635C607 550 585 528 585 500Z " transform="matrix(-0.31260396875402485,0.1326925121832579,-0.1326925121832579,-0.31260396875402485,903.1670890550162,604.8573383594943)" filter="url(#llleaves-blur-2)" opacity="0.52"></path><path d="M-10 26H40C68 26 90 48 90 76H40C12 76 -10 54 -10 26Z " transform="matrix(-0.13132574722065227,0.24698780837926337,-0.24698780837926337,-0.13132574722065227,57.84940811616853,47.818100773082726)" filter="url(#llleaves-blur-3)" opacity="0.43"></path><path d="M515 305H565C593 305 615 327 615 355H565C537 355 515 333 515 305Z " transform="matrix(-0.2500577160840519,0.19536649937356743,-0.19536649937356743,-0.2500577160840519,770.7535543807666,302.13697416167156)" filter="url(#llleaves-blur-2)" opacity="0.49"></path><path d="M711 30H761C789 30 811 52 811 80H761C733 80 711 58 711 30Z " transform="matrix(0.04223641986434411,0.21728754343331955,-0.21728754343331955,0.04223641986434411,740.8088993720667,-112.6788236452951)" filter="url(#llleaves-blur-3)" opacity="0.34"></path><path d="M471 650H521C549 650 571 672 571 700H521C493 700 471 678 471 650Z " transform="matrix(-0.17184434605397386,0.2365234510438815,-0.2365234510438815,-0.17184434605397386,770.1842337487404,667.7662155925701)" filter="url(#llleaves-blur-3)" opacity="0.45"></path><path d="M86 299H136C164 299 186 321 186 349H136C108 349 86 327 86 299Z " transform="matrix(-0.004168783629885214,0.2388294542030624,-0.2388294542030624,-0.004168783629885214,213.9476977354566,292.8698801244663)" filter="url(#llleaves-blur-3)" opacity="0.36"></path><path d="M621 10H671C699 10 721 32 721 60H671C643 60 621 38 621 10Z " transform="matrix(-0.16677423393101617,0.23817828976452407,-0.23817828976452407,-0.16677423393101617,791.2417511094703,-118.98053424441008)" filter="url(#llleaves-blur-3)" opacity="0.44"></path><path d="M404 191H454C482 191 504 213 504 241H454C426 241 404 219 404 191Z " transform="matrix(0.01613554979433072,0.2307491124772799,-0.2307491124772799,0.01613554979433072,496.5162686884663,107.7546241797395)" filter="url(#llleaves-blur-3)" opacity="0.35"></path><path d="M447 371H497C525 371 547 393 547 421H497C469 421 447 399 447 371Z " transform="matrix(-0.07222150213879096,0.2518663097147068,-0.2518663097147068,-0.07222150213879096,632.633145210003,299.42215891875196)" filter="url(#llleaves-blur-3)" opacity="0.40"></path><path d="M195 110H245C273 110 295 132 295 160H245C217 160 195 138 195 110Z " transform="matrix(1.4517274456139078e-17,0.2370850838992364,-0.2370850838992364,1.4517274456139078e-17,277.00648632639695,76.91415444468709)" filter="url(#llleaves-blur-3)" opacity="0.36"></path><path d="M703 730H753C781 730 803 752 803 780H753C725 780 703 758 703 730Z " transform="matrix(-0.2549016755094159,0.1920821899581085,-0.1920821899581085,-0.2549016755094159,1089.9630150769622,802.8128759711533)" filter="url(#llleaves-blur-2)" opacity="0.49"></path><path d="M73 18H123C151 18 173 40 173 68H123C95 68 73 46 73 18Z " transform="matrix(-0.27615865348442015,0.17256307882696215,-0.17256307882696215,-0.27615865348442015,164.38772676814307,33.64956340411372)" filter="url(#llleaves-blur-2)" opacity="0.50"></path><path d="M706 363H756C784 363 806 385 806 413H756C728 413 706 391 706 363Z " transform="matrix(-0.2549016755094159,0.1920821899581085,-0.1920821899581085,-0.2549016755094159,1023.2335563888645,341.68771448932335)" filter="url(#llleaves-blur-2)" opacity="0.49"></path><path d="M380 97H430C458 97 480 119 480 147H430C402 147 380 125 380 97Z " transform="matrix(0.11370854722175053,0.13551256966018957,-0.13551256966018957,0.11370854722175053,397.63785819319037,49.85715228506493)" filter="url(#llleaves-blur-4)" opacity="0.27"></path><path d="M712 147H762C790 147 812 169 812 197H762C734 197 712 175 712 147Z " transform="matrix(-0.1616693977838491,0.23968473895729484,-0.23968473895729484,-0.1616693977838491,926.4178562119479,17.167365333363364)" filter="url(#llleaves-blur-3)" opacity="0.44"></path><path d="M151 369H201C229 369 251 391 251 419H201C173 419 151 397 151 369Z " transform="matrix(0.008186198662484115,0.23442205832315932,-0.23442205832315932,0.008186198662484115,291.7168650481654,343.6558040040262)" filter="url(#llleaves-blur-3)" opacity="0.36"></path></g><g fill="none" stroke-width="3" stroke="hsl(37, 91%, 25%)"><path d="M634 86H684C712 86 734 108 734 136H684C656 136 634 114 634 86Z " transform="matrix(-0.0347945073634227,0.24757578419897244,-0.24757578419897244,-0.0347945073634227,735.280355082667,-54.4796460747572)" filter="url(#llleaves-blur-3)" opacity="0.38"></path><path d="M629 423H679C707 423 729 445 729 473H679C651 473 629 451 629 423Z " transform="matrix(-0.30090511960323546,0.14676123289680612,-0.14676123289680612,-0.30090511960323546,949.0636085483661,483.1546164453181)" filter="url(#llleaves-blur-2)" opacity="0.51"></path><path d="M161 22H211C239 22 261 44 261 72H211C183 72 161 50 161 22Z " transform="matrix(-0.20708039130858932,0.2220665320989985,-0.2220665320989985,-0.20708039130858932,265.13108957476527,9.876740118615018)" filter="url(#llleaves-blur-2)" opacity="0.46"></path><path d="M239 201H289C317 201 339 223 339 251H289C261 251 239 229 239 201Z " transform="matrix(0.07623043427212887,0.18867694569716126,-0.18867694569716126,0.07623043427212887,309.6103942229132,154.24428454801927)" filter="url(#llleaves-blur-3)" opacity="0.31"></path><path d="M182 633H232C260 633 282 655 282 683H232C204 683 182 661 182 633Z " transform="matrix(0.020055910793723195,0.229240109351772,-0.229240109351772,0.020055910793723195,378.1870206493222,591.619505328119)" filter="url(#llleaves-blur-3)" opacity="0.35"></path><path d="M-6 597H44C72 597 94 619 94 647H44C16 647 -6 625 -6 597Z " transform="matrix(0.08893824803551423,0.17455113993572302,-0.17455113993572302,0.08893824803551423,148.65752612645713,559.0001595647383)" filter="url(#llleaves-blur-4)" opacity="0.30"></path><path d="M296 567H346C374 567 396 589 396 617H346C318 617 296 595 296 567Z " transform="matrix(0.10150258385640058,0.1563002726171229,-0.1563002726171229,0.10150258385640058,403.40986737502215,477.8305760314863)" filter="url(#llleaves-blur-4)" opacity="0.28"></path><path d="M483 470H533C561 470 583 492 583 520H533C505 520 483 498 483 470Z " transform="matrix(-0.17184434605397386,0.2365234510438815,-0.2365234510438815,-0.17184434605397386,741.6721447134893,453.99595189032823)" filter="url(#llleaves-blur-3)" opacity="0.45"></path><path d="M345 16H395C423 16 445 38 445 66H395C367 66 345 44 345 16Z " transform="matrix(0.12302534610643953,0.04722500576804646,-0.04722500576804646,0.12302534610643953,348.3412135244463,17.302083531257626)" filter="url(#llleaves-blur-4)" opacity="0.20"></path><path d="M694 642H744C772 642 794 664 794 692H744C716 692 694 670 694 642Z " transform="matrix(-0.26322899281804846,0.1843149250465472,-0.1843149250465472,-0.26322899281804846,1062.780425662675,705.4434339750071)" filter="url(#llleaves-blur-2)" opacity="0.49"></path><path d="M614 328H664C692 328 714 350 714 378H664C636 378 614 356 614 328Z " transform="matrix(-0.30857267246455045,0.13738540528353343,-0.13738540528353343,-0.30857267246455045,917.3893025815488,370.70224427172013)" filter="url(#llleaves-blur-2)" opacity="0.52"></path><path d="M390 440H440C468 440 490 462 490 490H440C412 490 390 468 390 440Z " transform="matrix(0.04893146914370382,0.21194547808923275,-0.21194547808923275,0.04893146914370382,517.0248008882636,348.9908564889153)" filter="url(#llleaves-blur-3)" opacity="0.33"></path><path d="M605 734H655C683 734 705 756 705 784H655C627 784 605 762 605 734Z " transform="matrix(-0.30857267246455045,0.13738540528353343,-0.13738540528353343,-0.30857267246455045,961.3906230744824,903.2192179398795)" filter="url(#llleaves-blur-2)" opacity="0.52"></path><path d="M-12 329H38C66 329 88 351 88 379H38C10 379 -12 357 -12 329Z " transform="matrix(0.08893824803551423,0.17455113993572302,-0.17455113993572302,0.08893824803551423,96.41145011189641,315.88291687787046)" filter="url(#llleaves-blur-4)" opacity="0.30"></path><path d="M94 555H144C172 555 194 577 194 605H144C116 605 94 583 94 555Z " transform="matrix(-0.004168783629885214,0.2388294542030624,-0.2388294542030624,-0.004168783629885214,283.12138828047966,548.0264531000925)" filter="url(#llleaves-blur-3)" opacity="0.36"></path><path d="M549 127H599C627 127 649 149 649 177H599C571 177 549 155 549 127Z " transform="matrix(-0.24051600835806458,0.20181689390548369,-0.20181689390548369,-0.24051600835806458,773.7452568801142,67.67011382104108)" filter="url(#llleaves-blur-2)" opacity="0.48"></path><path d="M572 661H622C650 661 672 683 672 711H622C594 711 572 689 572 661Z " transform="matrix(-0.31274128045475935,0.1327507975421906,-0.1327507975421906,-0.31274128045475935,907.592123556803,817.9695223207224)" filter="url(#llleaves-blur-2)" opacity="0.52"></path><path d="M600 585H650C678 585 700 607 700 635H650C622 635 600 613 600 585Z " transform="matrix(-0.30857267246455045,0.13738540528353343,-0.13738540528353343,-0.30857267246455045,934.3773343249131,708.928816769079)" filter="url(#llleaves-blur-2)" opacity="0.52"></path><path d="M284 97H334C362 97 384 119 384 147H334C306 147 284 125 284 97Z " transform="matrix(0.1151039153989103,0.13241190782234627,-0.13241190782234627,0.1151039153989103,311.7095450110902,63.73174510866928)" filter="url(#llleaves-blur-4)" opacity="0.27"></path><path d="M208 536H258C286 536 308 558 308 586H258C230 586 208 564 208 536Z " transform="matrix(0.04904466236177882,0.2124357717824572,-0.2124357717824572,0.04904466236177882,364.52294508061954,478.6775152951681)" filter="url(#llleaves-blur-3)" opacity="0.33"></path><path d="M42 387H92C120 387 142 409 142 437H92C64 437 42 415 42 387Z " transform="matrix(0.034906227332713556,0.22038924569351154,-0.22038924569351154,0.034906227332713556,179.5889963111171,377.34282373511894)" filter="url(#llleaves-blur-3)" opacity="0.34"></path><path d="M323 263H373C401 263 423 285 423 313H373C345 313 323 291 323 263Z " transform="matrix(0.10365971537278437,0.1536818480188302,-0.1536818480188302,0.10365971537278437,378.5952983953745,200.82267266161443)" filter="url(#llleaves-blur-4)" opacity="0.28"></path><path d="M302 474H352C380 474 402 496 402 524H352C324 524 302 502 302 474Z " transform="matrix(0.10581367145087328,0.15111758396862965,-0.15111758396862965,0.10581367145087328,390.16126204963876,393.0055883890566)" filter="url(#llleaves-blur-4)" opacity="0.28"></path><path d="M491 735H541C569 735 591 757 591 785H541C513 785 491 763 491 735Z " transform="matrix(-0.21621913036926188,0.2162191303692619,-0.2162191303692619,-0.21621913036926188,822.3010886104098,807.3519895508683)" filter="url(#llleaves-blur-2)" opacity="0.47"></path><path d="M697 551H747C775 551 797 573 797 601H747C719 601 697 579 697 551Z " transform="matrix(-0.26322899281804846,0.1843149250465472,-0.1843149250465472,-0.26322899281804846,1049.7974544618935,589.9366508534251)" filter="url(#llleaves-blur-2)" opacity="0.49"></path><path d="M467 110H517C545 110 567 132 567 160H517C489 160 467 138 467 110Z " transform="matrix(-0.11136202383956237,0.2501232007600552,-0.2501232007600552,-0.11136202383956237,608.3407984276612,20.72017842539239)" filter="url(#llleaves-blur-3)" opacity="0.42"></path><path d="M716 262H766C794 262 816 284 816 312H766C738 312 716 290 716 262Z " transform="matrix(-0.2549016755094159,0.1920821899581085,-0.1920821899581085,-0.2549016755094159,1016.3822719581897,213.02182336329125)" filter="url(#llleaves-blur-2)" opacity="0.49"></path></g></svg>