<svg xmlns="http://www.w3.org/2000/svg" version="1.1" xmlns:xlink="http://www.w3.org/1999/xlink" xmlns:svgjs="http://svgjs.dev/svgjs" viewBox="0 0 800 800" opacity="0.48" width="800" height="800"><g stroke-width="1.75" stroke="hsla(37, 86%, 48%, 0.22)" fill="none"><line x1="0" y1="0" x2="47.05882352941177" y2="47.05882352941177"></line><line x1="47.05882352941177" y1="0" x2="94.11764705882354" y2="47.05882352941177"></line><line x1="94.11764705882354" y1="0" x2="141.1764705882353" y2="47.05882352941177"></line><line x1="141.1764705882353" y1="0" x2="188.23529411764707" y2="47.05882352941177"></line><line x1="188.23529411764707" y1="0" x2="235.29411764705884" y2="47.05882352941177"></line><line x1="235.29411764705884" y1="0" x2="282.3529411764706" y2="47.05882352941177"></line><line x1="282.3529411764706" y1="0" x2="329.4117647058824" y2="47.05882352941177"></line><line x1="329.4117647058824" y1="0" x2="376.47058823529414" y2="47.05882352941177"></line><line x1="376.47058823529414" y1="0" x2="423.5294117647059" y2="47.05882352941177"></line><line x1="423.5294117647059" y1="0" x2="470.5882352941177" y2="47.05882352941177"></line><line x1="470.5882352941177" y1="0" x2="517.6470588235295" y2="47.05882352941177"></line><line x1="517.6470588235295" y1="0" x2="564.7058823529412" y2="47.05882352941177"></line><line x1="564.7058823529412" y1="0" x2="611.7647058823529" y2="47.05882352941177"></line><line x1="611.7647058823529" y1="0" x2="658.8235294117646" y2="47.05882352941177"></line><line x1="658.8235294117646" y1="0" x2="705.8823529411764" y2="47.05882352941177"></line><line x1="705.8823529411764" y1="0" x2="752.9411764705881" y2="47.05882352941177"></line><line x1="752.9411764705881" y1="0" x2="799.9999999999998" y2="47.05882352941177"></line><line x1="799.9999999999998" y1="0" x2="847.0588235294115" y2="47.05882352941177"></line><line x1="0" y1="47.05882352941177" x2="47.05882352941177" y2="94.11764705882354"></line><line x1="47.05882352941177" y1="47.05882352941177" x2="94.11764705882354" y2="94.11764705882354"></line><line x1="94.11764705882354" y1="47.05882352941177" x2="141.1764705882353" y2="94.11764705882354"></line><line x1="141.1764705882353" y1="47.05882352941177" x2="188.23529411764707" y2="94.11764705882354"></line><line x1="188.23529411764707" y1="47.05882352941177" x2="235.29411764705884" y2="94.11764705882354"></line><line x1="235.29411764705884" y1="47.05882352941177" x2="282.3529411764706" y2="94.11764705882354"></line><line x1="282.3529411764706" y1="47.05882352941177" x2="329.4117647058824" y2="94.11764705882354"></line><line x1="329.4117647058824" y1="47.05882352941177" x2="376.47058823529414" y2="94.11764705882354"></line><line x1="376.47058823529414" y1="47.05882352941177" x2="423.5294117647059" y2="94.11764705882354"></line><line x1="423.5294117647059" y1="47.05882352941177" x2="470.5882352941177" y2="94.11764705882354"></line><line x1="470.5882352941177" y1="47.05882352941177" x2="517.6470588235295" y2="94.11764705882354"></line><line x1="517.6470588235295" y1="47.05882352941177" x2="564.7058823529412" y2="94.11764705882354"></line><line x1="564.7058823529412" y1="47.05882352941177" x2="611.7647058823529" y2="94.11764705882354"></line><line x1="611.7647058823529" y1="47.05882352941177" x2="658.8235294117646" y2="94.11764705882354"></line><line x1="658.8235294117646" y1="47.05882352941177" x2="705.8823529411764" y2="94.11764705882354"></line><line x1="705.8823529411764" y1="47.05882352941177" x2="752.9411764705881" y2="94.11764705882354"></line><line x1="752.9411764705881" y1="47.05882352941177" x2="799.9999999999998" y2="94.11764705882354"></line><line x1="799.9999999999998" y1="47.05882352941177" x2="847.0588235294115" y2="94.11764705882354"></line><line x1="0" y1="94.11764705882354" x2="47.05882352941177" y2="141.1764705882353"></line><line x1="47.05882352941177" y1="94.11764705882354" x2="94.11764705882354" y2="141.1764705882353"></line><line x1="94.11764705882354" y1="94.11764705882354" x2="141.1764705882353" y2="141.1764705882353"></line><line x1="141.1764705882353" y1="94.11764705882354" x2="188.23529411764707" y2="141.1764705882353"></line><line x1="188.23529411764707" y1="94.11764705882354" x2="235.29411764705884" y2="141.1764705882353"></line><line x1="235.29411764705884" y1="94.11764705882354" x2="282.3529411764706" y2="141.1764705882353"></line><line x1="282.3529411764706" y1="94.11764705882354" x2="329.4117647058824" y2="141.1764705882353"></line><line x1="329.4117647058824" y1="94.11764705882354" x2="376.47058823529414" y2="141.1764705882353"></line><line x1="376.47058823529414" y1="94.11764705882354" x2="423.5294117647059" y2="141.1764705882353"></line><line x1="423.5294117647059" y1="94.11764705882354" x2="470.5882352941177" y2="141.1764705882353"></line><line x1="470.5882352941177" y1="94.11764705882354" x2="517.6470588235295" y2="141.1764705882353"></line><line x1="517.6470588235295" y1="94.11764705882354" x2="564.7058823529412" y2="141.1764705882353"></line><line x1="564.7058823529412" y1="94.11764705882354" x2="611.7647058823529" y2="141.1764705882353"></line><line x1="611.7647058823529" y1="94.11764705882354" x2="658.8235294117646" y2="141.1764705882353"></line><line x1="658.8235294117646" y1="94.11764705882354" x2="705.8823529411764" y2="141.1764705882353"></line><line x1="705.8823529411764" y1="94.11764705882354" x2="752.9411764705881" y2="141.1764705882353"></line><line x1="752.9411764705881" y1="94.11764705882354" x2="799.9999999999998" y2="141.1764705882353"></line><line x1="799.9999999999998" y1="94.11764705882354" x2="847.0588235294115" y2="141.1764705882353"></line><line x1="0" y1="141.1764705882353" x2="47.05882352941177" y2="188.23529411764707"></line><line x1="47.05882352941177" y1="141.1764705882353" x2="94.11764705882354" y2="188.23529411764707"></line><line x1="94.11764705882354" y1="141.1764705882353" x2="141.1764705882353" y2="188.23529411764707"></line><line x1="141.1764705882353" y1="141.1764705882353" x2="188.23529411764707" y2="188.23529411764707"></line><line x1="188.23529411764707" y1="141.1764705882353" x2="235.29411764705884" y2="188.23529411764707"></line><line x1="235.29411764705884" y1="141.1764705882353" x2="282.3529411764706" y2="188.23529411764707"></line><line x1="282.3529411764706" y1="141.1764705882353" x2="329.4117647058824" y2="188.23529411764707"></line><line x1="329.4117647058824" y1="141.1764705882353" x2="376.47058823529414" y2="188.23529411764707"></line><line x1="376.47058823529414" y1="141.1764705882353" x2="423.5294117647059" y2="188.23529411764707"></line><line x1="423.5294117647059" y1="141.1764705882353" x2="470.5882352941177" y2="188.23529411764707"></line><line x1="470.5882352941177" y1="141.1764705882353" x2="517.6470588235295" y2="188.23529411764707"></line><line x1="517.6470588235295" y1="141.1764705882353" x2="564.7058823529412" y2="188.23529411764707"></line><line x1="564.7058823529412" y1="141.1764705882353" x2="611.7647058823529" y2="188.23529411764707"></line><line x1="611.7647058823529" y1="141.1764705882353" x2="658.8235294117646" y2="188.23529411764707"></line><line x1="658.8235294117646" y1="141.1764705882353" x2="705.8823529411764" y2="188.23529411764707"></line><line x1="705.8823529411764" y1="141.1764705882353" x2="752.9411764705881" y2="188.23529411764707"></line><line x1="752.9411764705881" y1="141.1764705882353" x2="799.9999999999998" y2="188.23529411764707"></line><line x1="799.9999999999998" y1="141.1764705882353" x2="847.0588235294115" y2="188.23529411764707"></line><line x1="0" y1="188.23529411764707" x2="47.05882352941177" y2="235.29411764705884"></line><line x1="47.05882352941177" y1="188.23529411764707" x2="94.11764705882354" y2="235.29411764705884"></line><line x1="94.11764705882354" y1="188.23529411764707" x2="141.1764705882353" y2="235.29411764705884"></line><line x1="141.1764705882353" y1="188.23529411764707" x2="188.23529411764707" y2="235.29411764705884"></line><line x1="188.23529411764707" y1="188.23529411764707" x2="235.29411764705884" y2="235.29411764705884"></line><line x1="235.29411764705884" y1="188.23529411764707" x2="282.3529411764706" y2="235.29411764705884"></line><line x1="282.3529411764706" y1="188.23529411764707" x2="329.4117647058824" y2="235.29411764705884"></line><line x1="329.4117647058824" y1="188.23529411764707" x2="376.47058823529414" y2="235.29411764705884"></line><line x1="376.47058823529414" y1="188.23529411764707" x2="423.5294117647059" y2="235.29411764705884"></line><line x1="423.5294117647059" y1="188.23529411764707" x2="470.5882352941177" y2="235.29411764705884"></line><line x1="470.5882352941177" y1="188.23529411764707" x2="517.6470588235295" y2="235.29411764705884"></line><line x1="517.6470588235295" y1="188.23529411764707" x2="564.7058823529412" y2="235.29411764705884"></line><line x1="564.7058823529412" y1="188.23529411764707" x2="611.7647058823529" y2="235.29411764705884"></line><line x1="611.7647058823529" y1="188.23529411764707" x2="658.8235294117646" y2="235.29411764705884"></line><line x1="658.8235294117646" y1="188.23529411764707" x2="705.8823529411764" y2="235.29411764705884"></line><line x1="705.8823529411764" y1="188.23529411764707" x2="752.9411764705881" y2="235.29411764705884"></line><line x1="752.9411764705881" y1="188.23529411764707" x2="799.9999999999998" y2="235.29411764705884"></line><line x1="799.9999999999998" y1="188.23529411764707" x2="847.0588235294115" y2="235.29411764705884"></line><line x1="0" y1="235.29411764705884" x2="47.05882352941177" y2="282.3529411764706"></line><line x1="47.05882352941177" y1="235.29411764705884" x2="94.11764705882354" y2="282.3529411764706"></line><line x1="94.11764705882354" y1="235.29411764705884" x2="141.1764705882353" y2="282.3529411764706"></line><line x1="141.1764705882353" y1="235.29411764705884" x2="188.23529411764707" y2="282.3529411764706"></line><line x1="188.23529411764707" y1="235.29411764705884" x2="235.29411764705884" y2="282.3529411764706"></line><line x1="235.29411764705884" y1="235.29411764705884" x2="282.3529411764706" y2="282.3529411764706"></line><line x1="282.3529411764706" y1="235.29411764705884" x2="329.4117647058824" y2="282.3529411764706"></line><line x1="329.4117647058824" y1="235.29411764705884" x2="376.47058823529414" y2="282.3529411764706"></line><line x1="376.47058823529414" y1="235.29411764705884" x2="423.5294117647059" y2="282.3529411764706"></line><line x1="423.5294117647059" y1="235.29411764705884" x2="470.5882352941177" y2="282.3529411764706"></line><line x1="470.5882352941177" y1="235.29411764705884" x2="517.6470588235295" y2="282.3529411764706"></line><line x1="517.6470588235295" y1="235.29411764705884" x2="564.7058823529412" y2="282.3529411764706"></line><line x1="564.7058823529412" y1="235.29411764705884" x2="611.7647058823529" y2="282.3529411764706"></line><line x1="611.7647058823529" y1="235.29411764705884" x2="658.8235294117646" y2="282.3529411764706"></line><line x1="658.8235294117646" y1="235.29411764705884" x2="705.8823529411764" y2="282.3529411764706"></line><line x1="705.8823529411764" y1="235.29411764705884" x2="752.9411764705881" y2="282.3529411764706"></line><line x1="752.9411764705881" y1="235.29411764705884" x2="799.9999999999998" y2="282.3529411764706"></line><line x1="799.9999999999998" y1="235.29411764705884" x2="847.0588235294115" y2="282.3529411764706"></line><line x1="0" y1="282.3529411764706" x2="47.05882352941177" y2="329.4117647058824"></line><line x1="47.05882352941177" y1="282.3529411764706" x2="94.11764705882354" y2="329.4117647058824"></line><line x1="94.11764705882354" y1="282.3529411764706" x2="141.1764705882353" y2="329.4117647058824"></line><line x1="141.1764705882353" y1="282.3529411764706" x2="188.23529411764707" y2="329.4117647058824"></line><line x1="188.23529411764707" y1="282.3529411764706" x2="235.29411764705884" y2="329.4117647058824"></line><line x1="235.29411764705884" y1="282.3529411764706" x2="282.3529411764706" y2="329.4117647058824"></line><line x1="282.3529411764706" y1="282.3529411764706" x2="329.4117647058824" y2="329.4117647058824"></line><line x1="329.4117647058824" y1="282.3529411764706" x2="376.47058823529414" y2="329.4117647058824"></line><line x1="376.47058823529414" y1="282.3529411764706" x2="423.5294117647059" y2="329.4117647058824"></line><line x1="423.5294117647059" y1="282.3529411764706" x2="470.5882352941177" y2="329.4117647058824"></line><line x1="470.5882352941177" y1="282.3529411764706" x2="517.6470588235295" y2="329.4117647058824"></line><line x1="517.6470588235295" y1="282.3529411764706" x2="564.7058823529412" y2="329.4117647058824"></line><line x1="564.7058823529412" y1="282.3529411764706" x2="611.7647058823529" y2="329.4117647058824"></line><line x1="611.7647058823529" y1="282.3529411764706" x2="658.8235294117646" y2="329.4117647058824"></line><line x1="658.8235294117646" y1="282.3529411764706" x2="705.8823529411764" y2="329.4117647058824"></line><line x1="705.8823529411764" y1="282.3529411764706" x2="752.9411764705881" y2="329.4117647058824"></line><line x1="752.9411764705881" y1="282.3529411764706" x2="799.9999999999998" y2="329.4117647058824"></line><line x1="799.9999999999998" y1="282.3529411764706" x2="847.0588235294115" y2="329.4117647058824"></line><line x1="0" y1="329.4117647058824" x2="47.05882352941177" y2="376.47058823529414"></line><line x1="47.05882352941177" y1="329.4117647058824" x2="94.11764705882354" y2="376.47058823529414"></line><line x1="94.11764705882354" y1="329.4117647058824" x2="141.1764705882353" y2="376.47058823529414"></line><line x1="141.1764705882353" y1="329.4117647058824" x2="188.23529411764707" y2="376.47058823529414"></line><line x1="188.23529411764707" y1="329.4117647058824" x2="235.29411764705884" y2="376.47058823529414"></line><line x1="235.29411764705884" y1="329.4117647058824" x2="282.3529411764706" y2="376.47058823529414"></line><line x1="282.3529411764706" y1="329.4117647058824" x2="329.4117647058824" y2="376.47058823529414"></line><line x1="329.4117647058824" y1="329.4117647058824" x2="376.47058823529414" y2="376.47058823529414"></line><line x1="376.47058823529414" y1="329.4117647058824" x2="423.5294117647059" y2="376.47058823529414"></line><line x1="423.5294117647059" y1="329.4117647058824" x2="470.5882352941177" y2="376.47058823529414"></line><line x1="470.5882352941177" y1="329.4117647058824" x2="517.6470588235295" y2="376.47058823529414"></line><line x1="517.6470588235295" y1="329.4117647058824" x2="564.7058823529412" y2="376.47058823529414"></line><line x1="564.7058823529412" y1="329.4117647058824" x2="611.7647058823529" y2="376.47058823529414"></line><line x1="611.7647058823529" y1="329.4117647058824" x2="658.8235294117646" y2="376.47058823529414"></line><line x1="658.8235294117646" y1="329.4117647058824" x2="705.8823529411764" y2="376.47058823529414"></line><line x1="705.8823529411764" y1="329.4117647058824" x2="752.9411764705881" y2="376.47058823529414"></line><line x1="752.9411764705881" y1="329.4117647058824" x2="799.9999999999998" y2="376.47058823529414"></line><line x1="799.9999999999998" y1="329.4117647058824" x2="847.0588235294115" y2="376.47058823529414"></line><line x1="0" y1="376.47058823529414" x2="47.05882352941177" y2="423.5294117647059"></line><line x1="47.05882352941177" y1="376.47058823529414" x2="94.11764705882354" y2="423.5294117647059"></line><line x1="94.11764705882354" y1="376.47058823529414" x2="141.1764705882353" y2="423.5294117647059"></line><line x1="141.1764705882353" y1="376.47058823529414" x2="188.23529411764707" y2="423.5294117647059"></line><line x1="188.23529411764707" y1="376.47058823529414" x2="235.29411764705884" y2="423.5294117647059"></line><line x1="235.29411764705884" y1="376.47058823529414" x2="282.3529411764706" y2="423.5294117647059"></line><line x1="282.3529411764706" y1="376.47058823529414" x2="329.4117647058824" y2="423.5294117647059"></line><line x1="329.4117647058824" y1="376.47058823529414" x2="376.47058823529414" y2="423.5294117647059"></line><line x1="376.47058823529414" y1="376.47058823529414" x2="423.5294117647059" y2="423.5294117647059"></line><line x1="423.5294117647059" y1="376.47058823529414" x2="470.5882352941177" y2="423.5294117647059"></line><line x1="470.5882352941177" y1="376.47058823529414" x2="517.6470588235295" y2="423.5294117647059"></line><line x1="517.6470588235295" y1="376.47058823529414" x2="564.7058823529412" y2="423.5294117647059"></line><line x1="564.7058823529412" y1="376.47058823529414" x2="611.7647058823529" y2="423.5294117647059"></line><line x1="611.7647058823529" y1="376.47058823529414" x2="658.8235294117646" y2="423.5294117647059"></line><line x1="658.8235294117646" y1="376.47058823529414" x2="705.8823529411764" y2="423.5294117647059"></line><line x1="705.8823529411764" y1="376.47058823529414" x2="752.9411764705881" y2="423.5294117647059"></line><line x1="752.9411764705881" y1="376.47058823529414" x2="799.9999999999998" y2="423.5294117647059"></line><line x1="799.9999999999998" y1="376.47058823529414" x2="847.0588235294115" y2="423.5294117647059"></line><line x1="0" y1="423.5294117647059" x2="47.05882352941177" y2="470.5882352941177"></line><line x1="47.05882352941177" y1="423.5294117647059" x2="94.11764705882354" y2="470.5882352941177"></line><line x1="94.11764705882354" y1="423.5294117647059" x2="141.1764705882353" y2="470.5882352941177"></line><line x1="141.1764705882353" y1="423.5294117647059" x2="188.23529411764707" y2="470.5882352941177"></line><line x1="188.23529411764707" y1="423.5294117647059" x2="235.29411764705884" y2="470.5882352941177"></line><line x1="235.29411764705884" y1="423.5294117647059" x2="282.3529411764706" y2="470.5882352941177"></line><line x1="282.3529411764706" y1="423.5294117647059" x2="329.4117647058824" y2="470.5882352941177"></line><line x1="329.4117647058824" y1="423.5294117647059" x2="376.47058823529414" y2="470.5882352941177"></line><line x1="376.47058823529414" y1="423.5294117647059" x2="423.5294117647059" y2="470.5882352941177"></line><line x1="423.5294117647059" y1="423.5294117647059" x2="470.5882352941177" y2="470.5882352941177"></line><line x1="470.5882352941177" y1="423.5294117647059" x2="517.6470588235295" y2="470.5882352941177"></line><line x1="517.6470588235295" y1="423.5294117647059" x2="564.7058823529412" y2="470.5882352941177"></line><line x1="564.7058823529412" y1="423.5294117647059" x2="611.7647058823529" y2="470.5882352941177"></line><line x1="611.7647058823529" y1="423.5294117647059" x2="658.8235294117646" y2="470.5882352941177"></line><line x1="658.8235294117646" y1="423.5294117647059" x2="705.8823529411764" y2="470.5882352941177"></line><line x1="705.8823529411764" y1="423.5294117647059" x2="752.9411764705881" y2="470.5882352941177"></line><line x1="752.9411764705881" y1="423.5294117647059" x2="799.9999999999998" y2="470.5882352941177"></line><line x1="799.9999999999998" y1="423.5294117647059" x2="847.0588235294115" y2="470.5882352941177"></line><line x1="0" y1="470.5882352941177" x2="47.05882352941177" y2="517.6470588235295"></line><line x1="47.05882352941177" y1="470.5882352941177" x2="94.11764705882354" y2="517.6470588235295"></line><line x1="94.11764705882354" y1="470.5882352941177" x2="141.1764705882353" y2="517.6470588235295"></line><line x1="141.1764705882353" y1="470.5882352941177" x2="188.23529411764707" y2="517.6470588235295"></line><line x1="188.23529411764707" y1="470.5882352941177" x2="235.29411764705884" y2="517.6470588235295"></line><line x1="235.29411764705884" y1="470.5882352941177" x2="282.3529411764706" y2="517.6470588235295"></line><line x1="282.3529411764706" y1="470.5882352941177" x2="329.4117647058824" y2="517.6470588235295"></line><line x1="329.4117647058824" y1="470.5882352941177" x2="376.47058823529414" y2="517.6470588235295"></line><line x1="376.47058823529414" y1="470.5882352941177" x2="423.5294117647059" y2="517.6470588235295"></line><line x1="423.5294117647059" y1="470.5882352941177" x2="470.5882352941177" y2="517.6470588235295"></line><line x1="470.5882352941177" y1="470.5882352941177" x2="517.6470588235295" y2="517.6470588235295"></line><line x1="517.6470588235295" y1="470.5882352941177" x2="564.7058823529412" y2="517.6470588235295"></line><line x1="564.7058823529412" y1="470.5882352941177" x2="611.7647058823529" y2="517.6470588235295"></line><line x1="611.7647058823529" y1="470.5882352941177" x2="658.8235294117646" y2="517.6470588235295"></line><line x1="658.8235294117646" y1="470.5882352941177" x2="705.8823529411764" y2="517.6470588235295"></line><line x1="705.8823529411764" y1="470.5882352941177" x2="752.9411764705881" y2="517.6470588235295"></line><line x1="752.9411764705881" y1="470.5882352941177" x2="799.9999999999998" y2="517.6470588235295"></line><line x1="799.9999999999998" y1="470.5882352941177" x2="847.0588235294115" y2="517.6470588235295"></line><line x1="0" y1="517.6470588235295" x2="47.05882352941177" y2="564.7058823529412"></line><line x1="47.05882352941177" y1="517.6470588235295" x2="94.11764705882354" y2="564.7058823529412"></line><line x1="94.11764705882354" y1="517.6470588235295" x2="141.1764705882353" y2="564.7058823529412"></line><line x1="141.1764705882353" y1="517.6470588235295" x2="188.23529411764707" y2="564.7058823529412"></line><line x1="188.23529411764707" y1="517.6470588235295" x2="235.29411764705884" y2="564.7058823529412"></line><line x1="235.29411764705884" y1="517.6470588235295" x2="282.3529411764706" y2="564.7058823529412"></line><line x1="282.3529411764706" y1="517.6470588235295" x2="329.4117647058824" y2="564.7058823529412"></line><line x1="329.4117647058824" y1="517.6470588235295" x2="376.47058823529414" y2="564.7058823529412"></line><line x1="376.47058823529414" y1="517.6470588235295" x2="423.5294117647059" y2="564.7058823529412"></line><line x1="423.5294117647059" y1="517.6470588235295" x2="470.5882352941177" y2="564.7058823529412"></line><line x1="470.5882352941177" y1="517.6470588235295" x2="517.6470588235295" y2="564.7058823529412"></line><line x1="517.6470588235295" y1="517.6470588235295" x2="564.7058823529412" y2="564.7058823529412"></line><line x1="564.7058823529412" y1="517.6470588235295" x2="611.7647058823529" y2="564.7058823529412"></line><line x1="611.7647058823529" y1="517.6470588235295" x2="658.8235294117646" y2="564.7058823529412"></line><line x1="658.8235294117646" y1="517.6470588235295" x2="705.8823529411764" y2="564.7058823529412"></line><line x1="705.8823529411764" y1="517.6470588235295" x2="752.9411764705881" y2="564.7058823529412"></line><line x1="752.9411764705881" y1="517.6470588235295" x2="799.9999999999998" y2="564.7058823529412"></line><line x1="799.9999999999998" y1="517.6470588235295" x2="847.0588235294115" y2="564.7058823529412"></line><line x1="0" y1="564.7058823529412" x2="47.05882352941177" y2="611.7647058823529"></line><line x1="47.05882352941177" y1="564.7058823529412" x2="94.11764705882354" y2="611.7647058823529"></line><line x1="94.11764705882354" y1="564.7058823529412" x2="141.1764705882353" y2="611.7647058823529"></line><line x1="141.1764705882353" y1="564.7058823529412" x2="188.23529411764707" y2="611.7647058823529"></line><line x1="188.23529411764707" y1="564.7058823529412" x2="235.29411764705884" y2="611.7647058823529"></line><line x1="235.29411764705884" y1="564.7058823529412" x2="282.3529411764706" y2="611.7647058823529"></line><line x1="282.3529411764706" y1="564.7058823529412" x2="329.4117647058824" y2="611.7647058823529"></line><line x1="329.4117647058824" y1="564.7058823529412" x2="376.47058823529414" y2="611.7647058823529"></line><line x1="376.47058823529414" y1="564.7058823529412" x2="423.5294117647059" y2="611.7647058823529"></line><line x1="423.5294117647059" y1="564.7058823529412" x2="470.5882352941177" y2="611.7647058823529"></line><line x1="470.5882352941177" y1="564.7058823529412" x2="517.6470588235295" y2="611.7647058823529"></line><line x1="517.6470588235295" y1="564.7058823529412" x2="564.7058823529412" y2="611.7647058823529"></line><line x1="564.7058823529412" y1="564.7058823529412" x2="611.7647058823529" y2="611.7647058823529"></line><line x1="611.7647058823529" y1="564.7058823529412" x2="658.8235294117646" y2="611.7647058823529"></line><line x1="658.8235294117646" y1="564.7058823529412" x2="705.8823529411764" y2="611.7647058823529"></line><line x1="705.8823529411764" y1="564.7058823529412" x2="752.9411764705881" y2="611.7647058823529"></line><line x1="752.9411764705881" y1="564.7058823529412" x2="799.9999999999998" y2="611.7647058823529"></line><line x1="799.9999999999998" y1="564.7058823529412" x2="847.0588235294115" y2="611.7647058823529"></line><line x1="0" y1="611.7647058823529" x2="47.05882352941177" y2="658.8235294117646"></line><line x1="47.05882352941177" y1="611.7647058823529" x2="94.11764705882354" y2="658.8235294117646"></line><line x1="94.11764705882354" y1="611.7647058823529" x2="141.1764705882353" y2="658.8235294117646"></line><line x1="141.1764705882353" y1="611.7647058823529" x2="188.23529411764707" y2="658.8235294117646"></line><line x1="188.23529411764707" y1="611.7647058823529" x2="235.29411764705884" y2="658.8235294117646"></line><line x1="235.29411764705884" y1="611.7647058823529" x2="282.3529411764706" y2="658.8235294117646"></line><line x1="282.3529411764706" y1="611.7647058823529" x2="329.4117647058824" y2="658.8235294117646"></line><line x1="329.4117647058824" y1="611.7647058823529" x2="376.47058823529414" y2="658.8235294117646"></line><line x1="376.47058823529414" y1="611.7647058823529" x2="423.5294117647059" y2="658.8235294117646"></line><line x1="423.5294117647059" y1="611.7647058823529" x2="470.5882352941177" y2="658.8235294117646"></line><line x1="470.5882352941177" y1="611.7647058823529" x2="517.6470588235295" y2="658.8235294117646"></line><line x1="517.6470588235295" y1="611.7647058823529" x2="564.7058823529412" y2="658.8235294117646"></line><line x1="564.7058823529412" y1="611.7647058823529" x2="611.7647058823529" y2="658.8235294117646"></line><line x1="611.7647058823529" y1="611.7647058823529" x2="658.8235294117646" y2="658.8235294117646"></line><line x1="658.8235294117646" y1="611.7647058823529" x2="705.8823529411764" y2="658.8235294117646"></line><line x1="705.8823529411764" y1="611.7647058823529" x2="752.9411764705881" y2="658.8235294117646"></line><line x1="752.9411764705881" y1="611.7647058823529" x2="799.9999999999998" y2="658.8235294117646"></line><line x1="799.9999999999998" y1="611.7647058823529" x2="847.0588235294115" y2="658.8235294117646"></line><line x1="0" y1="658.8235294117646" x2="47.05882352941177" y2="705.8823529411764"></line><line x1="47.05882352941177" y1="658.8235294117646" x2="94.11764705882354" y2="705.8823529411764"></line><line x1="94.11764705882354" y1="658.8235294117646" x2="141.1764705882353" y2="705.8823529411764"></line><line x1="141.1764705882353" y1="658.8235294117646" x2="188.23529411764707" y2="705.8823529411764"></line><line x1="188.23529411764707" y1="658.8235294117646" x2="235.29411764705884" y2="705.8823529411764"></line><line x1="235.29411764705884" y1="658.8235294117646" x2="282.3529411764706" y2="705.8823529411764"></line><line x1="282.3529411764706" y1="658.8235294117646" x2="329.4117647058824" y2="705.8823529411764"></line><line x1="329.4117647058824" y1="658.8235294117646" x2="376.47058823529414" y2="705.8823529411764"></line><line x1="376.47058823529414" y1="658.8235294117646" x2="423.5294117647059" y2="705.8823529411764"></line><line x1="423.5294117647059" y1="658.8235294117646" x2="470.5882352941177" y2="705.8823529411764"></line><line x1="470.5882352941177" y1="658.8235294117646" x2="517.6470588235295" y2="705.8823529411764"></line><line x1="517.6470588235295" y1="658.8235294117646" x2="564.7058823529412" y2="705.8823529411764"></line><line x1="564.7058823529412" y1="658.8235294117646" x2="611.7647058823529" y2="705.8823529411764"></line><line x1="611.7647058823529" y1="658.8235294117646" x2="658.8235294117646" y2="705.8823529411764"></line><line x1="658.8235294117646" y1="658.8235294117646" x2="705.8823529411764" y2="705.8823529411764"></line><line x1="705.8823529411764" y1="658.8235294117646" x2="752.9411764705881" y2="705.8823529411764"></line><line x1="752.9411764705881" y1="658.8235294117646" x2="799.9999999999998" y2="705.8823529411764"></line><line x1="799.9999999999998" y1="658.8235294117646" x2="847.0588235294115" y2="705.8823529411764"></line><line x1="0" y1="705.8823529411764" x2="47.05882352941177" y2="752.9411764705881"></line><line x1="47.05882352941177" y1="705.8823529411764" x2="94.11764705882354" y2="752.9411764705881"></line><line x1="94.11764705882354" y1="705.8823529411764" x2="141.1764705882353" y2="752.9411764705881"></line><line x1="141.1764705882353" y1="705.8823529411764" x2="188.23529411764707" y2="752.9411764705881"></line><line x1="188.23529411764707" y1="705.8823529411764" x2="235.29411764705884" y2="752.9411764705881"></line><line x1="235.29411764705884" y1="705.8823529411764" x2="282.3529411764706" y2="752.9411764705881"></line><line x1="282.3529411764706" y1="705.8823529411764" x2="329.4117647058824" y2="752.9411764705881"></line><line x1="329.4117647058824" y1="705.8823529411764" x2="376.47058823529414" y2="752.9411764705881"></line><line x1="376.47058823529414" y1="705.8823529411764" x2="423.5294117647059" y2="752.9411764705881"></line><line x1="423.5294117647059" y1="705.8823529411764" x2="470.5882352941177" y2="752.9411764705881"></line><line x1="470.5882352941177" y1="705.8823529411764" x2="517.6470588235295" y2="752.9411764705881"></line><line x1="517.6470588235295" y1="705.8823529411764" x2="564.7058823529412" y2="752.9411764705881"></line><line x1="564.7058823529412" y1="705.8823529411764" x2="611.7647058823529" y2="752.9411764705881"></line><line x1="611.7647058823529" y1="705.8823529411764" x2="658.8235294117646" y2="752.9411764705881"></line><line x1="658.8235294117646" y1="705.8823529411764" x2="705.8823529411764" y2="752.9411764705881"></line><line x1="705.8823529411764" y1="705.8823529411764" x2="752.9411764705881" y2="752.9411764705881"></line><line x1="752.9411764705881" y1="705.8823529411764" x2="799.9999999999998" y2="752.9411764705881"></line><line x1="799.9999999999998" y1="705.8823529411764" x2="847.0588235294115" y2="752.9411764705881"></line><line x1="0" y1="752.9411764705881" x2="47.05882352941177" y2="799.9999999999998"></line><line x1="47.05882352941177" y1="752.9411764705881" x2="94.11764705882354" y2="799.9999999999998"></line><line x1="94.11764705882354" y1="752.9411764705881" x2="141.1764705882353" y2="799.9999999999998"></line><line x1="141.1764705882353" y1="752.9411764705881" x2="188.23529411764707" y2="799.9999999999998"></line><line x1="188.23529411764707" y1="752.9411764705881" x2="235.29411764705884" y2="799.9999999999998"></line><line x1="235.29411764705884" y1="752.9411764705881" x2="282.3529411764706" y2="799.9999999999998"></line><line x1="282.3529411764706" y1="752.9411764705881" x2="329.4117647058824" y2="799.9999999999998"></line><line x1="329.4117647058824" y1="752.9411764705881" x2="376.47058823529414" y2="799.9999999999998"></line><line x1="376.47058823529414" y1="752.9411764705881" x2="423.5294117647059" y2="799.9999999999998"></line><line x1="423.5294117647059" y1="752.9411764705881" x2="470.5882352941177" y2="799.9999999999998"></line><line x1="470.5882352941177" y1="752.9411764705881" x2="517.6470588235295" y2="799.9999999999998"></line><line x1="517.6470588235295" y1="752.9411764705881" x2="564.7058823529412" y2="799.9999999999998"></line><line x1="564.7058823529412" y1="752.9411764705881" x2="611.7647058823529" y2="799.9999999999998"></line><line x1="611.7647058823529" y1="752.9411764705881" x2="658.8235294117646" y2="799.9999999999998"></line><line x1="658.8235294117646" y1="752.9411764705881" x2="705.8823529411764" y2="799.9999999999998"></line><line x1="705.8823529411764" y1="752.9411764705881" x2="752.9411764705881" y2="799.9999999999998"></line><line x1="752.9411764705881" y1="752.9411764705881" x2="799.9999999999998" y2="799.9999999999998"></line><line x1="799.9999999999998" y1="752.9411764705881" x2="847.0588235294115" y2="799.9999999999998"></line><line x1="0" y1="799.9999999999998" x2="47.05882352941177" y2="847.0588235294115"></line><line x1="47.05882352941177" y1="799.9999999999998" x2="94.11764705882354" y2="847.0588235294115"></line><line x1="94.11764705882354" y1="799.9999999999998" x2="141.1764705882353" y2="847.0588235294115"></line><line x1="141.1764705882353" y1="799.9999999999998" x2="188.23529411764707" y2="847.0588235294115"></line><line x1="188.23529411764707" y1="799.9999999999998" x2="235.29411764705884" y2="847.0588235294115"></line><line x1="235.29411764705884" y1="799.9999999999998" x2="282.3529411764706" y2="847.0588235294115"></line><line x1="282.3529411764706" y1="799.9999999999998" x2="329.4117647058824" y2="847.0588235294115"></line><line x1="329.4117647058824" y1="799.9999999999998" x2="376.47058823529414" y2="847.0588235294115"></line><line x1="376.47058823529414" y1="799.9999999999998" x2="423.5294117647059" y2="847.0588235294115"></line><line x1="423.5294117647059" y1="799.9999999999998" x2="470.5882352941177" y2="847.0588235294115"></line><line x1="470.5882352941177" y1="799.9999999999998" x2="517.6470588235295" y2="847.0588235294115"></line><line x1="517.6470588235295" y1="799.9999999999998" x2="564.7058823529412" y2="847.0588235294115"></line><line x1="564.7058823529412" y1="799.9999999999998" x2="611.7647058823529" y2="847.0588235294115"></line><line x1="611.7647058823529" y1="799.9999999999998" x2="658.8235294117646" y2="847.0588235294115"></line><line x1="658.8235294117646" y1="799.9999999999998" x2="705.8823529411764" y2="847.0588235294115"></line><line x1="705.8823529411764" y1="799.9999999999998" x2="752.9411764705881" y2="847.0588235294115"></line><line x1="752.9411764705881" y1="799.9999999999998" x2="799.9999999999998" y2="847.0588235294115"></line><line x1="799.9999999999998" y1="799.9999999999998" x2="847.0588235294115" y2="847.0588235294115"></line></g></svg>