<svg xmlns="http://www.w3.org/2000/svg" version="1.1" xmlns:xlink="http://www.w3.org/1999/xlink" xmlns:svgjs="http://svgjs.dev/svgjs" viewBox="0 0 800 800"><circle r="5" cx="390" cy="482" fill="hsl(71, 50%, 50%)" opacity="0.79"></circle><circle r="7" cx="479" cy="606" fill="hsl(100, 50%, 50%)" opacity="0.78"></circle><circle r="9.5" cx="435" cy="29" fill="hsl(152, 50%, 50%)" opacity="0.14"></circle><circle r="16" cx="29" cy="166" fill="hsl(205, 50%, 50%)" opacity="0.21"></circle><circle r="10.5" cx="202" cy="632" fill="hsl(148, 50%, 50%)" opacity="0.44"></circle><circle r="13" cx="245" cy="107" fill="hsl(129, 50%, 50%)" opacity="0.49"></circle><circle r="7.5" cx="641" cy="164" fill="hsl(210, 50%, 50%)" opacity="0.56"></circle><circle r="11.5" cx="638" cy="681" stroke-width="2" stroke="hsl(213, 50%, 50%)" fill="none" opacity="0.78"></circle><circle r="12" cx="16" cy="438" stroke-width="2" stroke="hsl(210, 50%, 50%)" fill="none" opacity="0.67"></circle><circle r="8" cx="163" cy="125" fill="hsl(137, 50%, 50%)" opacity="0.10"></circle><circle r="9" cx="99" cy="48" stroke-width="2" stroke="hsl(122, 50%, 50%)" fill="none" opacity="0.79"></circle><circle r="10.5" cx="755" cy="276" stroke-width="2" stroke="hsl(159, 50%, 50%)" fill="none" opacity="0.28"></circle><circle r="6" cx="428" cy="650" stroke-width="2" stroke="hsl(74, 50%, 50%)" fill="none" opacity="0.35"></circle><circle r="7.5" cx="258" cy="596" stroke-width="2" stroke="hsl(126, 50%, 50%)" fill="none" opacity="0.44"></circle><circle r="11.5" cx="555" cy="662" fill="hsl(169, 50%, 50%)" opacity="0.69"></circle><circle r="8.5" cx="343" cy="514" fill="hsl(83, 50%, 50%)" opacity="0.48"></circle><circle r="15" cx="570" cy="444" stroke-width="2" stroke="hsl(180, 50%, 50%)" fill="none" opacity="0.84"></circle><circle r="8.5" cx="233" cy="538" stroke-width="2" stroke="hsl(138, 50%, 50%)" fill="none" opacity="0.59"></circle><circle r="17" cx="656" cy="769" fill="hsl(212, 50%, 50%)" opacity="0.33"></circle><circle r="11" cx="307" cy="36" stroke-width="2" stroke="hsl(171, 50%, 50%)" fill="none" opacity="0.94"></circle><circle r="4.5" cx="314" cy="8" stroke-width="2" stroke="hsl(186, 50%, 50%)" fill="none" opacity="0.87"></circle><circle r="16" cx="627" cy="271" stroke-width="2" stroke="hsl(212, 50%, 50%)" fill="none" opacity="0.81"></circle><circle r="8.5" cx="148" cy="90" stroke-width="2" stroke="hsl(133, 50%, 50%)" fill="none" opacity="0.72"></circle><circle r="13" cx="136" cy="523" stroke-width="2" stroke="hsl(170, 50%, 50%)" fill="none" opacity="0.74"></circle><circle r="8.5" cx="413" cy="162" stroke-width="2" stroke="hsl(88, 50%, 50%)" fill="none" opacity="0.32"></circle><circle r="15" cx="75" cy="746" stroke-width="2" stroke="hsl(185, 50%, 50%)" fill="none" opacity="0.34"></circle><circle r="11.5" cx="300" cy="646" fill="hsl(100, 50%, 50%)" opacity="0.14"></circle><circle r="9.5" cx="183" cy="67" fill="hsl(121, 50%, 50%)" opacity="0.29"></circle><circle r="12" cx="17" cy="317" fill="hsl(210, 50%, 50%)" opacity="0.39"></circle><circle r="13" cx="665" cy="467" stroke-width="2" stroke="hsl(209, 50%, 50%)" fill="none" opacity="0.82"></circle><circle r="13" cx="738" cy="661" stroke-width="2" stroke="hsl(168, 50%, 50%)" fill="none" opacity="0.71"></circle><circle r="5.5" cx="460" cy="350" fill="hsl(84, 50%, 50%)" opacity="0.42"></circle><circle r="11" cx="777" cy="702" stroke-width="2" stroke="hsl(140, 50%, 50%)" fill="none" opacity="0.19"></circle><circle r="12" cx="633" cy="599" stroke-width="2" stroke="hsl(212, 50%, 50%)" fill="none" opacity="0.46"></circle><circle r="10.5" cx="540" cy="495" stroke-width="2" stroke="hsl(157, 50%, 50%)" fill="none" opacity="0.79"></circle><circle r="6.5" cx="786" cy="478" fill="hsl(140, 50%, 50%)" opacity="0.79"></circle><circle r="14" cx="82" cy="685" stroke-width="2" stroke="hsl(185, 50%, 50%)" fill="none" opacity="0.22"></circle><circle r="9" cx="344" cy="279" fill="hsl(83, 50%, 50%)" opacity="0.69"></circle><circle r="8.5" cx="459" cy="463" stroke-width="2" stroke="hsl(84, 50%, 50%)" fill="none" opacity="0.15"></circle><circle r="15" cx="761" cy="766" stroke-width="2" stroke="hsl(159, 50%, 50%)" fill="none" opacity="0.52"></circle><circle r="14.5" cx="711" cy="562" fill="hsl(193, 50%, 50%)" opacity="0.41"></circle><circle r="6.5" cx="302" cy="509" fill="hsl(100, 50%, 50%)" opacity="0.69"></circle><circle r="14" cx="85" cy="189" stroke-width="2" stroke="hsl(185, 50%, 50%)" fill="none" opacity="0.69"></circle><circle r="9" cx="644" cy="123" fill="hsl(197, 50%, 50%)" opacity="0.84"></circle><circle r="10.5" cx="301" cy="575" fill="hsl(100, 50%, 50%)" opacity="0.97"></circle><circle r="14" cx="658" cy="566" fill="hsl(212, 50%, 50%)" opacity="0.81"></circle><circle r="14" cx="160" cy="215" fill="hsl(163, 50%, 50%)" opacity="0.46"></circle><circle r="12" cx="337" cy="107" fill="hsl(126, 50%, 50%)" opacity="0.28"></circle><circle r="11" cx="610" cy="146" fill="hsl(198, 50%, 50%)" opacity="0.14"></circle><circle r="15.5" cx="24" cy="705" fill="hsl(210, 50%, 50%)" opacity="0.78"></circle><circle r="7.5" cx="390" cy="289" fill="hsl(71, 50%, 50%)" opacity="0.56"></circle><circle r="15" cx="172" cy="468" stroke-width="2" stroke="hsl(160, 50%, 50%)" fill="none" opacity="0.79"></circle><circle r="7" cx="440" cy="276" stroke-width="2" stroke="hsl(78, 50%, 50%)" fill="none" opacity="0.82"></circle><circle r="11.5" cx="35" cy="71" stroke-width="2" stroke="hsl(177, 50%, 50%)" fill="none" opacity="0.87"></circle><circle r="11" cx="295" cy="329" fill="hsl(107, 50%, 50%)" opacity="0.86"></circle><circle r="8.5" cx="482" cy="405" fill="hsl(100, 50%, 50%)" opacity="0.58"></circle><circle r="10" cx="731" cy="219" fill="hsl(177, 50%, 50%)" opacity="0.39"></circle><circle r="15.5" cx="27" cy="769" fill="hsl(205, 50%, 50%)" opacity="0.32"></circle><circle r="11.5" cx="642" cy="232" stroke-width="2" stroke="hsl(213, 50%, 50%)" fill="none" opacity="0.80"></circle><circle r="13" cx="228" cy="678" stroke-width="2" stroke="hsl(138, 50%, 50%)" fill="none" opacity="0.92"></circle><circle r="6" cx="400" cy="618" fill="hsl(71, 50%, 50%)" opacity="0.93"></circle><circle r="6.5" cx="787" cy="259" stroke-width="2" stroke="hsl(140, 50%, 50%)" fill="none" opacity="0.64"></circle><circle r="12" cx="531" cy="137" stroke-width="2" stroke="hsl(153, 50%, 50%)" fill="none" opacity="0.61"></circle><circle r="4.5" cx="445" cy="404" fill="hsl(78, 50%, 50%)" opacity="0.73"></circle><circle r="13.5" cx="261" cy="754" fill="hsl(126, 50%, 50%)" opacity="0.19"></circle><circle r="13.5" cx="196" cy="725" stroke-width="2" stroke="hsl(152, 50%, 50%)" fill="none" opacity="0.79"></circle><circle r="8.5" cx="350" cy="215" stroke-width="2" stroke="hsl(79, 50%, 50%)" fill="none" opacity="0.56"></circle><circle r="7" cx="358" cy="449" stroke-width="2" stroke="hsl(79, 50%, 50%)" fill="none" opacity="0.43"></circle><circle r="14.5" cx="71" cy="113" stroke-width="2" stroke="hsl(177, 50%, 50%)" fill="none" opacity="0.30"></circle><circle r="14.5" cx="616" cy="539" fill="hsl(209, 50%, 50%)" opacity="0.37"></circle><circle r="15.5" cx="67" cy="314" fill="hsl(190, 50%, 50%)" opacity="0.24"></circle><circle r="5.5" cx="437" cy="599" fill="hsl(74, 50%, 50%)" opacity="0.76"></circle><circle r="14.5" cx="158" cy="686" fill="hsl(163, 50%, 50%)" opacity="0.88"></circle><circle r="17" cx="762" cy="142" stroke-width="2" stroke="hsl(158, 50%, 50%)" fill="none" opacity="0.39"></circle><circle r="14" cx="502" cy="767" fill="hsl(121, 50%, 50%)" opacity="0.93"></circle><circle r="10.5" cx="27" cy="573" stroke-width="2" stroke="hsl(205, 50%, 50%)" fill="none" opacity="0.74"></circle><circle r="6.5" cx="603" cy="27" stroke-width="2" stroke="hsl(142, 50%, 50%)" fill="none" opacity="0.48"></circle><circle r="5" cx="418" cy="360" stroke-width="2" stroke="hsl(71, 50%, 50%)" fill="none" opacity="0.16"></circle><circle r="14.5" cx="20" cy="115" fill="hsl(206, 50%, 50%)" opacity="0.29"></circle><circle r="10" cx="259" cy="483" stroke-width="2" stroke="hsl(126, 50%, 50%)" fill="none" opacity="0.72"></circle><circle r="11" cx="672" cy="691" fill="hsl(209, 50%, 50%)" opacity="0.70"></circle><circle r="11.5" cx="94" cy="616" fill="hsl(181, 50%, 50%)" opacity="0.16"></circle><circle r="13" cx="696" cy="106" fill="hsl(186, 50%, 50%)" opacity="0.43"></circle><circle r="10.5" cx="321" cy="166" stroke-width="2" stroke="hsl(98, 50%, 50%)" fill="none" opacity="0.53"></circle><circle r="9.5" cx="352" cy="18" fill="hsl(180, 50%, 50%)" opacity="0.85"></circle><circle r="4.5" cx="400" cy="513" fill="hsl(70, 50%, 50%)" opacity="0.90"></circle><circle r="8.5" cx="45" cy="512" stroke-width="2" stroke="hsl(200, 50%, 50%)" fill="none" opacity="0.80"></circle><circle r="8.5" cx="462" cy="193" fill="hsl(84, 50%, 50%)" opacity="0.58"></circle><circle r="6.5" cx="786" cy="603" fill="hsl(140, 50%, 50%)" opacity="0.89"></circle><circle r="9.5" cx="207" cy="27" stroke-width="2" stroke="hsl(122, 50%, 50%)" fill="none" opacity="0.62"></circle><circle r="15.5" cx="571" cy="279" stroke-width="2" stroke="hsl(180, 50%, 50%)" fill="none" opacity="0.24"></circle><circle r="9.5" cx="617" cy="69" stroke-width="2" stroke="hsl(168, 50%, 50%)" fill="none" opacity="0.78"></circle><circle r="9.5" cx="44" cy="478" stroke-width="2" stroke="hsl(200, 50%, 50%)" fill="none" opacity="0.26"></circle><circle r="14.5" cx="765" cy="414" fill="hsl(149, 50%, 50%)" opacity="0.48"></circle><circle r="12" cx="27" cy="211" fill="hsl(205, 50%, 50%)" opacity="0.31"></circle><circle r="7" cx="415" cy="439" fill="hsl(71, 50%, 50%)" opacity="0.69"></circle><circle r="12.5" cx="29" cy="660" stroke-width="2" stroke="hsl(205, 50%, 50%)" fill="none" opacity="0.50"></circle><circle r="7.5" cx="763" cy="219" fill="hsl(149, 50%, 50%)" opacity="0.89"></circle><circle r="12" cx="611" cy="183" stroke-width="2" stroke="hsl(204, 50%, 50%)" fill="none" opacity="0.79"></circle><circle r="10" cx="13" cy="487" stroke-width="2" stroke="hsl(210, 50%, 50%)" fill="none" opacity="0.83"></circle><circle r="16" cx="543" cy="390" fill="hsl(157, 50%, 50%)" opacity="0.17"></circle><circle r="11" cx="42" cy="24" stroke-width="2" stroke="hsl(134, 50%, 50%)" fill="none" opacity="1.00"></circle><circle r="8" cx="346" cy="776" fill="hsl(83, 50%, 50%)" opacity="0.47"></circle><circle r="17" cx="124" cy="314" fill="hsl(173, 50%, 50%)" opacity="0.96"></circle><circle r="15" cx="596" cy="671" stroke-width="2" stroke="hsl(197, 50%, 50%)" fill="none" opacity="0.85"></circle><circle r="12.5" cx="268" cy="176" stroke-width="2" stroke="hsl(118, 50%, 50%)" fill="none" opacity="0.94"></circle><circle r="11.5" cx="511" cy="457" stroke-width="2" stroke="hsl(121, 50%, 50%)" fill="none" opacity="0.11"></circle><circle r="13.5" cx="558" cy="330" stroke-width="2" stroke="hsl(169, 50%, 50%)" fill="none" opacity="0.20"></circle><circle r="7" cx="386" cy="737" stroke-width="2" stroke="hsl(72, 50%, 50%)" fill="none" opacity="0.92"></circle><circle r="7" cx="306" cy="376" fill="hsl(100, 50%, 50%)" opacity="0.53"></circle><circle r="12" cx="573" cy="149" stroke-width="2" stroke="hsl(179, 50%, 50%)" fill="none" opacity="0.31"></circle><circle r="9.5" cx="355" cy="597" fill="hsl(79, 50%, 50%)" opacity="0.11"></circle><circle r="11" cx="398" cy="23" fill="hsl(170, 50%, 50%)" opacity="0.21"></circle><circle r="8" cx="515" cy="314" fill="hsl(133, 50%, 50%)" opacity="0.44"></circle><circle r="9.5" cx="234" cy="334" stroke-width="2" stroke="hsl(138, 50%, 50%)" fill="none" opacity="0.11"></circle><circle r="3.5" cx="429" cy="516" stroke-width="2" stroke="hsl(74, 50%, 50%)" fill="none" opacity="0.59"></circle><circle r="10.5" cx="670" cy="72" fill="hsl(176, 50%, 50%)" opacity="0.84"></circle><circle r="8.5" cx="525" cy="531" fill="hsl(133, 50%, 50%)" opacity="0.39"></circle><circle r="7.5" cx="482" cy="663" stroke-width="2" stroke="hsl(100, 50%, 50%)" fill="none" opacity="0.54"></circle><circle r="6" cx="402" cy="397" stroke-width="2" stroke="hsl(70, 50%, 50%)" fill="none" opacity="0.60"></circle><circle r="6.5" cx="449" cy="694" fill="hsl(78, 50%, 50%)" opacity="0.17"></circle><circle r="6.5" cx="340" cy="409" fill="hsl(83, 50%, 50%)" opacity="0.99"></circle><circle r="12" cx="122" cy="657" fill="hsl(173, 50%, 50%)" opacity="0.48"></circle><circle r="8.5" cx="435" cy="752" fill="hsl(74, 50%, 50%)" opacity="0.67"></circle><circle r="10.5" cx="511" cy="70" fill="hsl(137, 50%, 50%)" opacity="0.77"></circle><circle r="13" cx="675" cy="649" stroke-width="2" stroke="hsl(205, 50%, 50%)" fill="none" opacity="0.69"></circle><circle r="10" cx="538" cy="25" fill="hsl(129, 50%, 50%)" opacity="0.44"></circle><circle r="13" cx="129" cy="582" stroke-width="2" stroke="hsl(170, 50%, 50%)" fill="none" opacity="0.73"></circle><circle r="10.5" cx="555" cy="564" stroke-width="2" stroke="hsl(169, 50%, 50%)" fill="none" opacity="0.63"></circle><circle r="11" cx="643" cy="385" fill="hsl(213, 50%, 50%)" opacity="0.82"></circle><circle r="11" cx="722" cy="449" stroke-width="2" stroke="hsl(185, 50%, 50%)" fill="none" opacity="0.66"></circle><circle r="10" cx="517" cy="638" stroke-width="2" stroke="hsl(133, 50%, 50%)" fill="none" opacity="0.46"></circle><circle r="14" cx="692" cy="220" fill="hsl(199, 50%, 50%)" opacity="0.64"></circle><circle r="9" cx="249" cy="635" stroke-width="2" stroke="hsl(132, 50%, 50%)" fill="none" opacity="0.96"></circle><circle r="13" cx="31" cy="610" stroke-width="2" stroke="hsl(205, 50%, 50%)" fill="none" opacity="0.74"></circle><circle r="12.5" cx="276" cy="66" stroke-width="2" stroke="hsl(146, 50%, 50%)" fill="none" opacity="0.94"></circle><circle r="18" cx="103" cy="249" fill="hsl(177, 50%, 50%)" opacity="0.38"></circle><circle r="8.5" cx="497" cy="362" stroke-width="2" stroke="hsl(110, 50%, 50%)" fill="none" opacity="0.45"></circle><circle r="12" cx="150" cy="744" fill="hsl(163, 50%, 50%)" opacity="0.16"></circle><circle r="7" cx="36" cy="534" fill="hsl(205, 50%, 50%)" opacity="0.12"></circle><circle r="22" cx="758" cy="51" fill="hsl(157, 50%, 50%)" opacity="0.65"></circle><circle r="11.5" cx="584" cy="92" fill="hsl(169, 50%, 50%)" opacity="0.14"></circle><circle r="9.5" cx="173" cy="258" stroke-width="2" stroke="hsl(160, 50%, 50%)" fill="none" opacity="0.51"></circle></svg>