<svg xmlns="http://www.w3.org/2000/svg" version="1.1" xmlns:xlink="http://www.w3.org/1999/xlink" xmlns:svgjs="http://svgjs.dev/svgjs" viewBox="0 0 800 800" opacity="0.32"><defs><linearGradient gradientTransform="rotate(270)" x1="50%" y1="0%" x2="50%" y2="100%" id="sssquiggly-grad"><stop stop-color="hsla(0, 0%, 0%, 1.00)" stop-opacity="1" offset="0%"></stop><stop stop-color="hsla(0, 0%, 100%, 0.93)" stop-opacity="1" offset="100%"></stop></linearGradient></defs><g stroke-width="0.5" stroke="url(#sssquiggly-grad)" fill="none" stroke-linecap="round" transform="matrix(1,0,0,1,-5,-99.98730087280273)"><path d="M10,10C21.805555555555557,13.75,40.97222222222223,35.708333333333336,66.66666666666667,28C92.36111111111111,20.291666666666664,105.55555555555557,-28.458333333333332,133.33333333333334,-27C161.11111111111111,-25.541666666666668,172.22222222222223,30.833333333333332,200,35C227.77777777777777,39.166666666666664,238.8888888888889,-7.416666666666667,266.6666666666667,-7C294.44444444444446,-6.583333333333333,305.5555555555556,37.625,333.33333333333337,37C361.11111111111114,36.375,372.22222222222223,-8.333333333333334,400,-10C427.77777777777777,-11.666666666666666,438.8888888888889,29.416666666666668,466.6666666666667,29C494.44444444444446,28.583333333333332,505.5555555555556,-13.25,533.3333333333334,-12C561.1111111111111,-10.75,572.2222222222222,30.416666666666668,600,35C627.7777777777778,39.583333333333336,638.8888888888889,10,666.6666666666667,10C694.4444444444446,10,705.5555555555557,35.833333333333336,733.3333333333334,35C761.1111111111111,34.166666666666664,786.1111111111111,12.041666666666666,800,6"></path><path d="M10,10C21.805555555555557,13.75,40.97222222222223,35.708333333333336,66.66666666666667,28C92.36111111111111,20.291666666666664,105.55555555555557,-28.458333333333332,133.33333333333334,-27C161.11111111111111,-25.541666666666668,172.22222222222223,30.833333333333332,200,35C227.77777777777777,39.166666666666664,238.8888888888889,-7.416666666666667,266.6666666666667,-7C294.44444444444446,-6.583333333333333,305.5555555555556,37.625,333.33333333333337,37C361.11111111111114,36.375,372.22222222222223,-8.333333333333334,400,-10C427.77777777777777,-11.666666666666666,438.8888888888889,29.416666666666668,466.6666666666667,29C494.44444444444446,28.583333333333332,505.5555555555556,-13.25,533.3333333333334,-12C561.1111111111111,-10.75,572.2222222222222,30.416666666666668,600,35C627.7777777777778,39.583333333333336,638.8888888888889,10,666.6666666666667,10C694.4444444444446,10,705.5555555555557,35.833333333333336,733.3333333333334,35C761.1111111111111,34.166666666666664,786.1111111111111,12.041666666666666,800,6" transform="matrix(1,0,0,1,0,990)"></path><path d="M10,10C21.805555555555557,13.75,40.97222222222223,35.708333333333336,66.66666666666667,28C92.36111111111111,20.291666666666664,105.55555555555557,-28.458333333333332,133.33333333333334,-27C161.11111111111111,-25.541666666666668,172.22222222222223,30.833333333333332,200,35C227.77777777777777,39.166666666666664,238.8888888888889,-7.416666666666667,266.6666666666667,-7C294.44444444444446,-6.583333333333333,305.5555555555556,37.625,333.33333333333337,37C361.11111111111114,36.375,372.22222222222223,-8.333333333333334,400,-10C427.77777777777777,-11.666666666666666,438.8888888888889,29.416666666666668,466.6666666666667,29C494.44444444444446,28.583333333333332,505.5555555555556,-13.25,533.3333333333334,-12C561.1111111111111,-10.75,572.2222222222222,30.416666666666668,600,35C627.7777777777778,39.583333333333336,638.8888888888889,10,666.6666666666667,10C694.4444444444446,10,705.5555555555557,35.833333333333336,733.3333333333334,35C761.1111111111111,34.166666666666664,786.1111111111111,12.041666666666666,800,6" transform="matrix(1,0,0,1,0,957)"></path><path d="M10,10C21.805555555555557,13.75,40.97222222222223,35.708333333333336,66.66666666666667,28C92.36111111111111,20.291666666666664,105.55555555555557,-28.458333333333332,133.33333333333334,-27C161.11111111111111,-25.541666666666668,172.22222222222223,30.833333333333332,200,35C227.77777777777777,39.166666666666664,238.8888888888889,-7.416666666666667,266.6666666666667,-7C294.44444444444446,-6.583333333333333,305.5555555555556,37.625,333.33333333333337,37C361.11111111111114,36.375,372.22222222222223,-8.333333333333334,400,-10C427.77777777777777,-11.666666666666666,438.8888888888889,29.416666666666668,466.6666666666667,29C494.44444444444446,28.583333333333332,505.5555555555556,-13.25,533.3333333333334,-12C561.1111111111111,-10.75,572.2222222222222,30.416666666666668,600,35C627.7777777777778,39.583333333333336,638.8888888888889,10,666.6666666666667,10C694.4444444444446,10,705.5555555555557,35.833333333333336,733.3333333333334,35C761.1111111111111,34.166666666666664,786.1111111111111,12.041666666666666,800,6" transform="matrix(1,0,0,1,0,924)"></path><path d="M10,10C21.805555555555557,13.75,40.97222222222223,35.708333333333336,66.66666666666667,28C92.36111111111111,20.291666666666664,105.55555555555557,-28.458333333333332,133.33333333333334,-27C161.11111111111111,-25.541666666666668,172.22222222222223,30.833333333333332,200,35C227.77777777777777,39.166666666666664,238.8888888888889,-7.416666666666667,266.6666666666667,-7C294.44444444444446,-6.583333333333333,305.5555555555556,37.625,333.33333333333337,37C361.11111111111114,36.375,372.22222222222223,-8.333333333333334,400,-10C427.77777777777777,-11.666666666666666,438.8888888888889,29.416666666666668,466.6666666666667,29C494.44444444444446,28.583333333333332,505.5555555555556,-13.25,533.3333333333334,-12C561.1111111111111,-10.75,572.2222222222222,30.416666666666668,600,35C627.7777777777778,39.583333333333336,638.8888888888889,10,666.6666666666667,10C694.4444444444446,10,705.5555555555557,35.833333333333336,733.3333333333334,35C761.1111111111111,34.166666666666664,786.1111111111111,12.041666666666666,800,6" transform="matrix(1,0,0,1,0,891)"></path><path d="M10,10C21.805555555555557,13.75,40.97222222222223,35.708333333333336,66.66666666666667,28C92.36111111111111,20.291666666666664,105.55555555555557,-28.458333333333332,133.33333333333334,-27C161.11111111111111,-25.541666666666668,172.22222222222223,30.833333333333332,200,35C227.77777777777777,39.166666666666664,238.8888888888889,-7.416666666666667,266.6666666666667,-7C294.44444444444446,-6.583333333333333,305.5555555555556,37.625,333.33333333333337,37C361.11111111111114,36.375,372.22222222222223,-8.333333333333334,400,-10C427.77777777777777,-11.666666666666666,438.8888888888889,29.416666666666668,466.6666666666667,29C494.44444444444446,28.583333333333332,505.5555555555556,-13.25,533.3333333333334,-12C561.1111111111111,-10.75,572.2222222222222,30.416666666666668,600,35C627.7777777777778,39.583333333333336,638.8888888888889,10,666.6666666666667,10C694.4444444444446,10,705.5555555555557,35.833333333333336,733.3333333333334,35C761.1111111111111,34.166666666666664,786.1111111111111,12.041666666666666,800,6" transform="matrix(1,0,0,1,0,858)"></path><path d="M10,10C21.805555555555557,13.75,40.97222222222223,35.708333333333336,66.66666666666667,28C92.36111111111111,20.291666666666664,105.55555555555557,-28.458333333333332,133.33333333333334,-27C161.11111111111111,-25.541666666666668,172.22222222222223,30.833333333333332,200,35C227.77777777777777,39.166666666666664,238.8888888888889,-7.416666666666667,266.6666666666667,-7C294.44444444444446,-6.583333333333333,305.5555555555556,37.625,333.33333333333337,37C361.11111111111114,36.375,372.22222222222223,-8.333333333333334,400,-10C427.77777777777777,-11.666666666666666,438.8888888888889,29.416666666666668,466.6666666666667,29C494.44444444444446,28.583333333333332,505.5555555555556,-13.25,533.3333333333334,-12C561.1111111111111,-10.75,572.2222222222222,30.416666666666668,600,35C627.7777777777778,39.583333333333336,638.8888888888889,10,666.6666666666667,10C694.4444444444446,10,705.5555555555557,35.833333333333336,733.3333333333334,35C761.1111111111111,34.166666666666664,786.1111111111111,12.041666666666666,800,6" transform="matrix(1,0,0,1,0,825)"></path><path d="M10,10C21.805555555555557,13.75,40.97222222222223,35.708333333333336,66.66666666666667,28C92.36111111111111,20.291666666666664,105.55555555555557,-28.458333333333332,133.33333333333334,-27C161.11111111111111,-25.541666666666668,172.22222222222223,30.833333333333332,200,35C227.77777777777777,39.166666666666664,238.8888888888889,-7.416666666666667,266.6666666666667,-7C294.44444444444446,-6.583333333333333,305.5555555555556,37.625,333.33333333333337,37C361.11111111111114,36.375,372.22222222222223,-8.333333333333334,400,-10C427.77777777777777,-11.666666666666666,438.8888888888889,29.416666666666668,466.6666666666667,29C494.44444444444446,28.583333333333332,505.5555555555556,-13.25,533.3333333333334,-12C561.1111111111111,-10.75,572.2222222222222,30.416666666666668,600,35C627.7777777777778,39.583333333333336,638.8888888888889,10,666.6666666666667,10C694.4444444444446,10,705.5555555555557,35.833333333333336,733.3333333333334,35C761.1111111111111,34.166666666666664,786.1111111111111,12.041666666666666,800,6" transform="matrix(1,0,0,1,0,792)"></path><path d="M10,10C21.805555555555557,13.75,40.97222222222223,35.708333333333336,66.66666666666667,28C92.36111111111111,20.291666666666664,105.55555555555557,-28.458333333333332,133.33333333333334,-27C161.11111111111111,-25.541666666666668,172.22222222222223,30.833333333333332,200,35C227.77777777777777,39.166666666666664,238.8888888888889,-7.416666666666667,266.6666666666667,-7C294.44444444444446,-6.583333333333333,305.5555555555556,37.625,333.33333333333337,37C361.11111111111114,36.375,372.22222222222223,-8.333333333333334,400,-10C427.77777777777777,-11.666666666666666,438.8888888888889,29.416666666666668,466.6666666666667,29C494.44444444444446,28.583333333333332,505.5555555555556,-13.25,533.3333333333334,-12C561.1111111111111,-10.75,572.2222222222222,30.416666666666668,600,35C627.7777777777778,39.583333333333336,638.8888888888889,10,666.6666666666667,10C694.4444444444446,10,705.5555555555557,35.833333333333336,733.3333333333334,35C761.1111111111111,34.166666666666664,786.1111111111111,12.041666666666666,800,6" transform="matrix(1,0,0,1,0,759)"></path><path d="M10,10C21.805555555555557,13.75,40.97222222222223,35.708333333333336,66.66666666666667,28C92.36111111111111,20.291666666666664,105.55555555555557,-28.458333333333332,133.33333333333334,-27C161.11111111111111,-25.541666666666668,172.22222222222223,30.833333333333332,200,35C227.77777777777777,39.166666666666664,238.8888888888889,-7.416666666666667,266.6666666666667,-7C294.44444444444446,-6.583333333333333,305.5555555555556,37.625,333.33333333333337,37C361.11111111111114,36.375,372.22222222222223,-8.333333333333334,400,-10C427.77777777777777,-11.666666666666666,438.8888888888889,29.416666666666668,466.6666666666667,29C494.44444444444446,28.583333333333332,505.5555555555556,-13.25,533.3333333333334,-12C561.1111111111111,-10.75,572.2222222222222,30.416666666666668,600,35C627.7777777777778,39.583333333333336,638.8888888888889,10,666.6666666666667,10C694.4444444444446,10,705.5555555555557,35.833333333333336,733.3333333333334,35C761.1111111111111,34.166666666666664,786.1111111111111,12.041666666666666,800,6" transform="matrix(1,0,0,1,0,726)"></path><path d="M10,10C21.805555555555557,13.75,40.97222222222223,35.708333333333336,66.66666666666667,28C92.36111111111111,20.291666666666664,105.55555555555557,-28.458333333333332,133.33333333333334,-27C161.11111111111111,-25.541666666666668,172.22222222222223,30.833333333333332,200,35C227.77777777777777,39.166666666666664,238.8888888888889,-7.416666666666667,266.6666666666667,-7C294.44444444444446,-6.583333333333333,305.5555555555556,37.625,333.33333333333337,37C361.11111111111114,36.375,372.22222222222223,-8.333333333333334,400,-10C427.77777777777777,-11.666666666666666,438.8888888888889,29.416666666666668,466.6666666666667,29C494.44444444444446,28.583333333333332,505.5555555555556,-13.25,533.3333333333334,-12C561.1111111111111,-10.75,572.2222222222222,30.416666666666668,600,35C627.7777777777778,39.583333333333336,638.8888888888889,10,666.6666666666667,10C694.4444444444446,10,705.5555555555557,35.833333333333336,733.3333333333334,35C761.1111111111111,34.166666666666664,786.1111111111111,12.041666666666666,800,6" transform="matrix(1,0,0,1,0,693)"></path><path d="M10,10C21.805555555555557,13.75,40.97222222222223,35.708333333333336,66.66666666666667,28C92.36111111111111,20.291666666666664,105.55555555555557,-28.458333333333332,133.33333333333334,-27C161.11111111111111,-25.541666666666668,172.22222222222223,30.833333333333332,200,35C227.77777777777777,39.166666666666664,238.8888888888889,-7.416666666666667,266.6666666666667,-7C294.44444444444446,-6.583333333333333,305.5555555555556,37.625,333.33333333333337,37C361.11111111111114,36.375,372.22222222222223,-8.333333333333334,400,-10C427.77777777777777,-11.666666666666666,438.8888888888889,29.416666666666668,466.6666666666667,29C494.44444444444446,28.583333333333332,505.5555555555556,-13.25,533.3333333333334,-12C561.1111111111111,-10.75,572.2222222222222,30.416666666666668,600,35C627.7777777777778,39.583333333333336,638.8888888888889,10,666.6666666666667,10C694.4444444444446,10,705.5555555555557,35.833333333333336,733.3333333333334,35C761.1111111111111,34.166666666666664,786.1111111111111,12.041666666666666,800,6" transform="matrix(1,0,0,1,0,660)"></path><path d="M10,10C21.805555555555557,13.75,40.97222222222223,35.708333333333336,66.66666666666667,28C92.36111111111111,20.291666666666664,105.55555555555557,-28.458333333333332,133.33333333333334,-27C161.11111111111111,-25.541666666666668,172.22222222222223,30.833333333333332,200,35C227.77777777777777,39.166666666666664,238.8888888888889,-7.416666666666667,266.6666666666667,-7C294.44444444444446,-6.583333333333333,305.5555555555556,37.625,333.33333333333337,37C361.11111111111114,36.375,372.22222222222223,-8.333333333333334,400,-10C427.77777777777777,-11.666666666666666,438.8888888888889,29.416666666666668,466.6666666666667,29C494.44444444444446,28.583333333333332,505.5555555555556,-13.25,533.3333333333334,-12C561.1111111111111,-10.75,572.2222222222222,30.416666666666668,600,35C627.7777777777778,39.583333333333336,638.8888888888889,10,666.6666666666667,10C694.4444444444446,10,705.5555555555557,35.833333333333336,733.3333333333334,35C761.1111111111111,34.166666666666664,786.1111111111111,12.041666666666666,800,6" transform="matrix(1,0,0,1,0,627)"></path><path d="M10,10C21.805555555555557,13.75,40.97222222222223,35.708333333333336,66.66666666666667,28C92.36111111111111,20.291666666666664,105.55555555555557,-28.458333333333332,133.33333333333334,-27C161.11111111111111,-25.541666666666668,172.22222222222223,30.833333333333332,200,35C227.77777777777777,39.166666666666664,238.8888888888889,-7.416666666666667,266.6666666666667,-7C294.44444444444446,-6.583333333333333,305.5555555555556,37.625,333.33333333333337,37C361.11111111111114,36.375,372.22222222222223,-8.333333333333334,400,-10C427.77777777777777,-11.666666666666666,438.8888888888889,29.416666666666668,466.6666666666667,29C494.44444444444446,28.583333333333332,505.5555555555556,-13.25,533.3333333333334,-12C561.1111111111111,-10.75,572.2222222222222,30.416666666666668,600,35C627.7777777777778,39.583333333333336,638.8888888888889,10,666.6666666666667,10C694.4444444444446,10,705.5555555555557,35.833333333333336,733.3333333333334,35C761.1111111111111,34.166666666666664,786.1111111111111,12.041666666666666,800,6" transform="matrix(1,0,0,1,0,594)"></path><path d="M10,10C21.805555555555557,13.75,40.97222222222223,35.708333333333336,66.66666666666667,28C92.36111111111111,20.291666666666664,105.55555555555557,-28.458333333333332,133.33333333333334,-27C161.11111111111111,-25.541666666666668,172.22222222222223,30.833333333333332,200,35C227.77777777777777,39.166666666666664,238.8888888888889,-7.416666666666667,266.6666666666667,-7C294.44444444444446,-6.583333333333333,305.5555555555556,37.625,333.33333333333337,37C361.11111111111114,36.375,372.22222222222223,-8.333333333333334,400,-10C427.77777777777777,-11.666666666666666,438.8888888888889,29.416666666666668,466.6666666666667,29C494.44444444444446,28.583333333333332,505.5555555555556,-13.25,533.3333333333334,-12C561.1111111111111,-10.75,572.2222222222222,30.416666666666668,600,35C627.7777777777778,39.583333333333336,638.8888888888889,10,666.6666666666667,10C694.4444444444446,10,705.5555555555557,35.833333333333336,733.3333333333334,35C761.1111111111111,34.166666666666664,786.1111111111111,12.041666666666666,800,6" transform="matrix(1,0,0,1,0,561)"></path><path d="M10,10C21.805555555555557,13.75,40.97222222222223,35.708333333333336,66.66666666666667,28C92.36111111111111,20.291666666666664,105.55555555555557,-28.458333333333332,133.33333333333334,-27C161.11111111111111,-25.541666666666668,172.22222222222223,30.833333333333332,200,35C227.77777777777777,39.166666666666664,238.8888888888889,-7.416666666666667,266.6666666666667,-7C294.44444444444446,-6.583333333333333,305.5555555555556,37.625,333.33333333333337,37C361.11111111111114,36.375,372.22222222222223,-8.333333333333334,400,-10C427.77777777777777,-11.666666666666666,438.8888888888889,29.416666666666668,466.6666666666667,29C494.44444444444446,28.583333333333332,505.5555555555556,-13.25,533.3333333333334,-12C561.1111111111111,-10.75,572.2222222222222,30.416666666666668,600,35C627.7777777777778,39.583333333333336,638.8888888888889,10,666.6666666666667,10C694.4444444444446,10,705.5555555555557,35.833333333333336,733.3333333333334,35C761.1111111111111,34.166666666666664,786.1111111111111,12.041666666666666,800,6" transform="matrix(1,0,0,1,0,528)"></path><path d="M10,10C21.805555555555557,13.75,40.97222222222223,35.708333333333336,66.66666666666667,28C92.36111111111111,20.291666666666664,105.55555555555557,-28.458333333333332,133.33333333333334,-27C161.11111111111111,-25.541666666666668,172.22222222222223,30.833333333333332,200,35C227.77777777777777,39.166666666666664,238.8888888888889,-7.416666666666667,266.6666666666667,-7C294.44444444444446,-6.583333333333333,305.5555555555556,37.625,333.33333333333337,37C361.11111111111114,36.375,372.22222222222223,-8.333333333333334,400,-10C427.77777777777777,-11.666666666666666,438.8888888888889,29.416666666666668,466.6666666666667,29C494.44444444444446,28.583333333333332,505.5555555555556,-13.25,533.3333333333334,-12C561.1111111111111,-10.75,572.2222222222222,30.416666666666668,600,35C627.7777777777778,39.583333333333336,638.8888888888889,10,666.6666666666667,10C694.4444444444446,10,705.5555555555557,35.833333333333336,733.3333333333334,35C761.1111111111111,34.166666666666664,786.1111111111111,12.041666666666666,800,6" transform="matrix(1,0,0,1,0,495)"></path><path d="M10,10C21.805555555555557,13.75,40.97222222222223,35.708333333333336,66.66666666666667,28C92.36111111111111,20.291666666666664,105.55555555555557,-28.458333333333332,133.33333333333334,-27C161.11111111111111,-25.541666666666668,172.22222222222223,30.833333333333332,200,35C227.77777777777777,39.166666666666664,238.8888888888889,-7.416666666666667,266.6666666666667,-7C294.44444444444446,-6.583333333333333,305.5555555555556,37.625,333.33333333333337,37C361.11111111111114,36.375,372.22222222222223,-8.333333333333334,400,-10C427.77777777777777,-11.666666666666666,438.8888888888889,29.416666666666668,466.6666666666667,29C494.44444444444446,28.583333333333332,505.5555555555556,-13.25,533.3333333333334,-12C561.1111111111111,-10.75,572.2222222222222,30.416666666666668,600,35C627.7777777777778,39.583333333333336,638.8888888888889,10,666.6666666666667,10C694.4444444444446,10,705.5555555555557,35.833333333333336,733.3333333333334,35C761.1111111111111,34.166666666666664,786.1111111111111,12.041666666666666,800,6" transform="matrix(1,0,0,1,0,462)"></path><path d="M10,10C21.805555555555557,13.75,40.97222222222223,35.708333333333336,66.66666666666667,28C92.36111111111111,20.291666666666664,105.55555555555557,-28.458333333333332,133.33333333333334,-27C161.11111111111111,-25.541666666666668,172.22222222222223,30.833333333333332,200,35C227.77777777777777,39.166666666666664,238.8888888888889,-7.416666666666667,266.6666666666667,-7C294.44444444444446,-6.583333333333333,305.5555555555556,37.625,333.33333333333337,37C361.11111111111114,36.375,372.22222222222223,-8.333333333333334,400,-10C427.77777777777777,-11.666666666666666,438.8888888888889,29.416666666666668,466.6666666666667,29C494.44444444444446,28.583333333333332,505.5555555555556,-13.25,533.3333333333334,-12C561.1111111111111,-10.75,572.2222222222222,30.416666666666668,600,35C627.7777777777778,39.583333333333336,638.8888888888889,10,666.6666666666667,10C694.4444444444446,10,705.5555555555557,35.833333333333336,733.3333333333334,35C761.1111111111111,34.166666666666664,786.1111111111111,12.041666666666666,800,6" transform="matrix(1,0,0,1,0,429)"></path><path d="M10,10C21.805555555555557,13.75,40.97222222222223,35.708333333333336,66.66666666666667,28C92.36111111111111,20.291666666666664,105.55555555555557,-28.458333333333332,133.33333333333334,-27C161.11111111111111,-25.541666666666668,172.22222222222223,30.833333333333332,200,35C227.77777777777777,39.166666666666664,238.8888888888889,-7.416666666666667,266.6666666666667,-7C294.44444444444446,-6.583333333333333,305.5555555555556,37.625,333.33333333333337,37C361.11111111111114,36.375,372.22222222222223,-8.333333333333334,400,-10C427.77777777777777,-11.666666666666666,438.8888888888889,29.416666666666668,466.6666666666667,29C494.44444444444446,28.583333333333332,505.5555555555556,-13.25,533.3333333333334,-12C561.1111111111111,-10.75,572.2222222222222,30.416666666666668,600,35C627.7777777777778,39.583333333333336,638.8888888888889,10,666.6666666666667,10C694.4444444444446,10,705.5555555555557,35.833333333333336,733.3333333333334,35C761.1111111111111,34.166666666666664,786.1111111111111,12.041666666666666,800,6" transform="matrix(1,0,0,1,0,396)"></path><path d="M10,10C21.805555555555557,13.75,40.97222222222223,35.708333333333336,66.66666666666667,28C92.36111111111111,20.291666666666664,105.55555555555557,-28.458333333333332,133.33333333333334,-27C161.11111111111111,-25.541666666666668,172.22222222222223,30.833333333333332,200,35C227.77777777777777,39.166666666666664,238.8888888888889,-7.416666666666667,266.6666666666667,-7C294.44444444444446,-6.583333333333333,305.5555555555556,37.625,333.33333333333337,37C361.11111111111114,36.375,372.22222222222223,-8.333333333333334,400,-10C427.77777777777777,-11.666666666666666,438.8888888888889,29.416666666666668,466.6666666666667,29C494.44444444444446,28.583333333333332,505.5555555555556,-13.25,533.3333333333334,-12C561.1111111111111,-10.75,572.2222222222222,30.416666666666668,600,35C627.7777777777778,39.583333333333336,638.8888888888889,10,666.6666666666667,10C694.4444444444446,10,705.5555555555557,35.833333333333336,733.3333333333334,35C761.1111111111111,34.166666666666664,786.1111111111111,12.041666666666666,800,6" transform="matrix(1,0,0,1,0,363)"></path><path d="M10,10C21.805555555555557,13.75,40.97222222222223,35.708333333333336,66.66666666666667,28C92.36111111111111,20.291666666666664,105.55555555555557,-28.458333333333332,133.33333333333334,-27C161.11111111111111,-25.541666666666668,172.22222222222223,30.833333333333332,200,35C227.77777777777777,39.166666666666664,238.8888888888889,-7.416666666666667,266.6666666666667,-7C294.44444444444446,-6.583333333333333,305.5555555555556,37.625,333.33333333333337,37C361.11111111111114,36.375,372.22222222222223,-8.333333333333334,400,-10C427.77777777777777,-11.666666666666666,438.8888888888889,29.416666666666668,466.6666666666667,29C494.44444444444446,28.583333333333332,505.5555555555556,-13.25,533.3333333333334,-12C561.1111111111111,-10.75,572.2222222222222,30.416666666666668,600,35C627.7777777777778,39.583333333333336,638.8888888888889,10,666.6666666666667,10C694.4444444444446,10,705.5555555555557,35.833333333333336,733.3333333333334,35C761.1111111111111,34.166666666666664,786.1111111111111,12.041666666666666,800,6" transform="matrix(1,0,0,1,0,330)"></path><path d="M10,10C21.805555555555557,13.75,40.97222222222223,35.708333333333336,66.66666666666667,28C92.36111111111111,20.291666666666664,105.55555555555557,-28.458333333333332,133.33333333333334,-27C161.11111111111111,-25.541666666666668,172.22222222222223,30.833333333333332,200,35C227.77777777777777,39.166666666666664,238.8888888888889,-7.416666666666667,266.6666666666667,-7C294.44444444444446,-6.583333333333333,305.5555555555556,37.625,333.33333333333337,37C361.11111111111114,36.375,372.22222222222223,-8.333333333333334,400,-10C427.77777777777777,-11.666666666666666,438.8888888888889,29.416666666666668,466.6666666666667,29C494.44444444444446,28.583333333333332,505.5555555555556,-13.25,533.3333333333334,-12C561.1111111111111,-10.75,572.2222222222222,30.416666666666668,600,35C627.7777777777778,39.583333333333336,638.8888888888889,10,666.6666666666667,10C694.4444444444446,10,705.5555555555557,35.833333333333336,733.3333333333334,35C761.1111111111111,34.166666666666664,786.1111111111111,12.041666666666666,800,6" transform="matrix(1,0,0,1,0,297)"></path><path d="M10,10C21.805555555555557,13.75,40.97222222222223,35.708333333333336,66.66666666666667,28C92.36111111111111,20.291666666666664,105.55555555555557,-28.458333333333332,133.33333333333334,-27C161.11111111111111,-25.541666666666668,172.22222222222223,30.833333333333332,200,35C227.77777777777777,39.166666666666664,238.8888888888889,-7.416666666666667,266.6666666666667,-7C294.44444444444446,-6.583333333333333,305.5555555555556,37.625,333.33333333333337,37C361.11111111111114,36.375,372.22222222222223,-8.333333333333334,400,-10C427.77777777777777,-11.666666666666666,438.8888888888889,29.416666666666668,466.6666666666667,29C494.44444444444446,28.583333333333332,505.5555555555556,-13.25,533.3333333333334,-12C561.1111111111111,-10.75,572.2222222222222,30.416666666666668,600,35C627.7777777777778,39.583333333333336,638.8888888888889,10,666.6666666666667,10C694.4444444444446,10,705.5555555555557,35.833333333333336,733.3333333333334,35C761.1111111111111,34.166666666666664,786.1111111111111,12.041666666666666,800,6" transform="matrix(1,0,0,1,0,264)"></path><path d="M10,10C21.805555555555557,13.75,40.97222222222223,35.708333333333336,66.66666666666667,28C92.36111111111111,20.291666666666664,105.55555555555557,-28.458333333333332,133.33333333333334,-27C161.11111111111111,-25.541666666666668,172.22222222222223,30.833333333333332,200,35C227.77777777777777,39.166666666666664,238.8888888888889,-7.416666666666667,266.6666666666667,-7C294.44444444444446,-6.583333333333333,305.5555555555556,37.625,333.33333333333337,37C361.11111111111114,36.375,372.22222222222223,-8.333333333333334,400,-10C427.77777777777777,-11.666666666666666,438.8888888888889,29.416666666666668,466.6666666666667,29C494.44444444444446,28.583333333333332,505.5555555555556,-13.25,533.3333333333334,-12C561.1111111111111,-10.75,572.2222222222222,30.416666666666668,600,35C627.7777777777778,39.583333333333336,638.8888888888889,10,666.6666666666667,10C694.4444444444446,10,705.5555555555557,35.833333333333336,733.3333333333334,35C761.1111111111111,34.166666666666664,786.1111111111111,12.041666666666666,800,6" transform="matrix(1,0,0,1,0,231)"></path><path d="M10,10C21.805555555555557,13.75,40.97222222222223,35.708333333333336,66.66666666666667,28C92.36111111111111,20.291666666666664,105.55555555555557,-28.458333333333332,133.33333333333334,-27C161.11111111111111,-25.541666666666668,172.22222222222223,30.833333333333332,200,35C227.77777777777777,39.166666666666664,238.8888888888889,-7.416666666666667,266.6666666666667,-7C294.44444444444446,-6.583333333333333,305.5555555555556,37.625,333.33333333333337,37C361.11111111111114,36.375,372.22222222222223,-8.333333333333334,400,-10C427.77777777777777,-11.666666666666666,438.8888888888889,29.416666666666668,466.6666666666667,29C494.44444444444446,28.583333333333332,505.5555555555556,-13.25,533.3333333333334,-12C561.1111111111111,-10.75,572.2222222222222,30.416666666666668,600,35C627.7777777777778,39.583333333333336,638.8888888888889,10,666.6666666666667,10C694.4444444444446,10,705.5555555555557,35.833333333333336,733.3333333333334,35C761.1111111111111,34.166666666666664,786.1111111111111,12.041666666666666,800,6" transform="matrix(1,0,0,1,0,198)"></path><path d="M10,10C21.805555555555557,13.75,40.97222222222223,35.708333333333336,66.66666666666667,28C92.36111111111111,20.291666666666664,105.55555555555557,-28.458333333333332,133.33333333333334,-27C161.11111111111111,-25.541666666666668,172.22222222222223,30.833333333333332,200,35C227.77777777777777,39.166666666666664,238.8888888888889,-7.416666666666667,266.6666666666667,-7C294.44444444444446,-6.583333333333333,305.5555555555556,37.625,333.33333333333337,37C361.11111111111114,36.375,372.22222222222223,-8.333333333333334,400,-10C427.77777777777777,-11.666666666666666,438.8888888888889,29.416666666666668,466.6666666666667,29C494.44444444444446,28.583333333333332,505.5555555555556,-13.25,533.3333333333334,-12C561.1111111111111,-10.75,572.2222222222222,30.416666666666668,600,35C627.7777777777778,39.583333333333336,638.8888888888889,10,666.6666666666667,10C694.4444444444446,10,705.5555555555557,35.833333333333336,733.3333333333334,35C761.1111111111111,34.166666666666664,786.1111111111111,12.041666666666666,800,6" transform="matrix(1,0,0,1,0,165)"></path><path d="M10,10C21.805555555555557,13.75,40.97222222222223,35.708333333333336,66.66666666666667,28C92.36111111111111,20.291666666666664,105.55555555555557,-28.458333333333332,133.33333333333334,-27C161.11111111111111,-25.541666666666668,172.22222222222223,30.833333333333332,200,35C227.77777777777777,39.166666666666664,238.8888888888889,-7.416666666666667,266.6666666666667,-7C294.44444444444446,-6.583333333333333,305.5555555555556,37.625,333.33333333333337,37C361.11111111111114,36.375,372.22222222222223,-8.333333333333334,400,-10C427.77777777777777,-11.666666666666666,438.8888888888889,29.416666666666668,466.6666666666667,29C494.44444444444446,28.583333333333332,505.5555555555556,-13.25,533.3333333333334,-12C561.1111111111111,-10.75,572.2222222222222,30.416666666666668,600,35C627.7777777777778,39.583333333333336,638.8888888888889,10,666.6666666666667,10C694.4444444444446,10,705.5555555555557,35.833333333333336,733.3333333333334,35C761.1111111111111,34.166666666666664,786.1111111111111,12.041666666666666,800,6" transform="matrix(1,0,0,1,0,132)"></path><path d="M10,10C21.805555555555557,13.75,40.97222222222223,35.708333333333336,66.66666666666667,28C92.36111111111111,20.291666666666664,105.55555555555557,-28.458333333333332,133.33333333333334,-27C161.11111111111111,-25.541666666666668,172.22222222222223,30.833333333333332,200,35C227.77777777777777,39.166666666666664,238.8888888888889,-7.416666666666667,266.6666666666667,-7C294.44444444444446,-6.583333333333333,305.5555555555556,37.625,333.33333333333337,37C361.11111111111114,36.375,372.22222222222223,-8.333333333333334,400,-10C427.77777777777777,-11.666666666666666,438.8888888888889,29.416666666666668,466.6666666666667,29C494.44444444444446,28.583333333333332,505.5555555555556,-13.25,533.3333333333334,-12C561.1111111111111,-10.75,572.2222222222222,30.416666666666668,600,35C627.7777777777778,39.583333333333336,638.8888888888889,10,666.6666666666667,10C694.4444444444446,10,705.5555555555557,35.833333333333336,733.3333333333334,35C761.1111111111111,34.166666666666664,786.1111111111111,12.041666666666666,800,6" transform="matrix(1,0,0,1,0,99)"></path><path d="M10,10C21.805555555555557,13.75,40.97222222222223,35.708333333333336,66.66666666666667,28C92.36111111111111,20.291666666666664,105.55555555555557,-28.458333333333332,133.33333333333334,-27C161.11111111111111,-25.541666666666668,172.22222222222223,30.833333333333332,200,35C227.77777777777777,39.166666666666664,238.8888888888889,-7.416666666666667,266.6666666666667,-7C294.44444444444446,-6.583333333333333,305.5555555555556,37.625,333.33333333333337,37C361.11111111111114,36.375,372.22222222222223,-8.333333333333334,400,-10C427.77777777777777,-11.666666666666666,438.8888888888889,29.416666666666668,466.6666666666667,29C494.44444444444446,28.583333333333332,505.5555555555556,-13.25,533.3333333333334,-12C561.1111111111111,-10.75,572.2222222222222,30.416666666666668,600,35C627.7777777777778,39.583333333333336,638.8888888888889,10,666.6666666666667,10C694.4444444444446,10,705.5555555555557,35.833333333333336,733.3333333333334,35C761.1111111111111,34.166666666666664,786.1111111111111,12.041666666666666,800,6" transform="matrix(1,0,0,1,0,66)"></path><path d="M10,10C21.805555555555557,13.75,40.97222222222223,35.708333333333336,66.66666666666667,28C92.36111111111111,20.291666666666664,105.55555555555557,-28.458333333333332,133.33333333333334,-27C161.11111111111111,-25.541666666666668,172.22222222222223,30.833333333333332,200,35C227.77777777777777,39.166666666666664,238.8888888888889,-7.416666666666667,266.6666666666667,-7C294.44444444444446,-6.583333333333333,305.5555555555556,37.625,333.33333333333337,37C361.11111111111114,36.375,372.22222222222223,-8.333333333333334,400,-10C427.77777777777777,-11.666666666666666,438.8888888888889,29.416666666666668,466.6666666666667,29C494.44444444444446,28.583333333333332,505.5555555555556,-13.25,533.3333333333334,-12C561.1111111111111,-10.75,572.2222222222222,30.416666666666668,600,35C627.7777777777778,39.583333333333336,638.8888888888889,10,666.6666666666667,10C694.4444444444446,10,705.5555555555557,35.833333333333336,733.3333333333334,35C761.1111111111111,34.166666666666664,786.1111111111111,12.041666666666666,800,6" transform="matrix(1,0,0,1,0,33)"></path></g></svg>