<svg xmlns="http://www.w3.org/2000/svg" version="1.1" xmlns:xlink="http://www.w3.org/1999/xlink" xmlns:svgjs="http://svgjs.dev/svgjs" viewBox="0 0 800 800" opacity="1"><defs><linearGradient x1="50%" y1="0%" x2="50%" y2="100%" id="vvvortex-grad"><stop stop-color="hsl(45, 94%, 42%)" stop-opacity="1" offset="0%"></stop><stop stop-color="hsl(0, 2%, 37%)" stop-opacity="1" offset="100%"></stop></linearGradient></defs><g stroke="url(#vvvortex-grad)" fill="none" stroke-linecap="round"><circle r="412.5" cx="400" cy="400" stroke-width="6" stroke-dasharray="45 37" stroke-dashoffset="25" transform="rotate(287, 400, 400)" opacity="0.05"></circle><circle r="396" cx="400" cy="400" stroke-width="5" stroke-dasharray="46 51" stroke-dashoffset="25" transform="rotate(339, 400, 400)" opacity="0.09"></circle><circle r="379.5" cx="400" cy="400" stroke-width="5" stroke-dasharray="12 16" stroke-dashoffset="25" transform="rotate(319, 400, 400)" opacity="0.13"></circle><circle r="363" cx="400" cy="400" stroke-width="5" stroke-dasharray="46 54" stroke-dashoffset="25" transform="rotate(46, 400, 400)" opacity="0.17"></circle><circle r="346.5" cx="400" cy="400" stroke-width="5" stroke-dasharray="46 35" stroke-dashoffset="25" transform="rotate(313, 400, 400)" opacity="0.21"></circle><circle r="330" cx="400" cy="400" stroke-width="5" stroke-dasharray="39 40" stroke-dashoffset="25" transform="rotate(59, 400, 400)" opacity="0.25"></circle><circle r="313.5" cx="400" cy="400" stroke-width="5" stroke-dasharray="25 33" stroke-dashoffset="25" transform="rotate(80, 400, 400)" opacity="0.29"></circle><circle r="297" cx="400" cy="400" stroke-width="4" stroke-dasharray="15 53" stroke-dashoffset="25" transform="rotate(240, 400, 400)" opacity="0.33"></circle><circle r="280.5" cx="400" cy="400" stroke-width="4" stroke-dasharray="54 51" stroke-dashoffset="25" transform="rotate(123, 400, 400)" opacity="0.37"></circle><circle r="264" cx="400" cy="400" stroke-width="4" stroke-dasharray="46 34" stroke-dashoffset="25" transform="rotate(53, 400, 400)" opacity="0.41"></circle><circle r="247.5" cx="400" cy="400" stroke-width="4" stroke-dasharray="54 42" stroke-dashoffset="25" transform="rotate(86, 400, 400)" opacity="0.45"></circle><circle r="231" cx="400" cy="400" stroke-width="4" stroke-dasharray="52 43" stroke-dashoffset="25" transform="rotate(319, 400, 400)" opacity="0.49"></circle><circle r="214.5" cx="400" cy="400" stroke-width="4" stroke-dasharray="50 26" stroke-dashoffset="25" transform="rotate(352, 400, 400)" opacity="0.53"></circle><circle r="198" cx="400" cy="400" stroke-width="3" stroke-dasharray="25 40" stroke-dashoffset="25" transform="rotate(30, 400, 400)" opacity="0.56"></circle><circle r="181.5" cx="400" cy="400" stroke-width="3" stroke-dasharray="29 40" stroke-dashoffset="25" transform="rotate(304, 400, 400)" opacity="0.60"></circle><circle r="165" cx="400" cy="400" stroke-width="3" stroke-dasharray="44 33" stroke-dashoffset="25" transform="rotate(186, 400, 400)" opacity="0.64"></circle><circle r="148.5" cx="400" cy="400" stroke-width="3" stroke-dasharray="24 54" stroke-dashoffset="25" transform="rotate(176, 400, 400)" opacity="0.68"></circle><circle r="132" cx="400" cy="400" stroke-width="3" stroke-dasharray="43 22" stroke-dashoffset="25" transform="rotate(208, 400, 400)" opacity="0.72"></circle><circle r="115.5" cx="400" cy="400" stroke-width="3" stroke-dasharray="47 48" stroke-dashoffset="25" transform="rotate(163, 400, 400)" opacity="0.76"></circle><circle r="99" cx="400" cy="400" stroke-width="2" stroke-dasharray="32 37" stroke-dashoffset="25" transform="rotate(358, 400, 400)" opacity="0.80"></circle><circle r="82.5" cx="400" cy="400" stroke-width="2" stroke-dasharray="53 25" stroke-dashoffset="25" transform="rotate(284, 400, 400)" opacity="0.84"></circle><circle r="66" cx="400" cy="400" stroke-width="2" stroke-dasharray="19 48" stroke-dashoffset="25" transform="rotate(46, 400, 400)" opacity="0.88"></circle><circle r="49.5" cx="400" cy="400" stroke-width="2" stroke-dasharray="14 51" stroke-dashoffset="25" transform="rotate(313, 400, 400)" opacity="0.92"></circle><circle r="33" cx="400" cy="400" stroke-width="2" stroke-dasharray="40 18" stroke-dashoffset="25" transform="rotate(241, 400, 400)" opacity="0.96"></circle><circle r="16.5" cx="400" cy="400" stroke-width="2" stroke-dasharray="16 25" stroke-dashoffset="25" transform="rotate(104, 400, 400)" opacity="1.00"></circle></g></svg>